<svg id="Capa_1" width="700px" height="700px" data-name="Capa 1" xmlns="http://www.w3.org/2000/svg" viewBox="0 0 475.47 389.34"><defs><style>.cls-1{fill:none;}.cls-2{fill:#40c1d5;}.cls-3{fill:#fff;}</style></defs><title>01_logo_fondoscuro</title><path class="cls-1" d="M709.26,576.06c3.14-3,4.42-6.25,4.28-9.67a1.71,1.71,0,0,1-.11-.6,1.74,1.74,0,0,1,0-.35,18.51,18.51,0,0,0-1.82-5.86c-.61-1.28-1.19-2.09-2.59-2.38a34.93,34.93,0,0,1-3.67-1,1.71,1.71,0,0,1-2.55-.92,39.43,39.43,0,0,1-5.7-2.89,20.06,20.06,0,0,0-6.8-2.54,1.72,1.72,0,0,1-3.36-.45c-.61-.05-1.23-.09-1.85-.12a39.8,39.8,0,0,1-5-.25l-.46-.07a1.73,1.73,0,1,1-3.12-.57,3.83,3.83,0,0,1-2.2-1.65,7.56,7.56,0,0,0-1.19-1.49,1.71,1.71,0,0,1-.78.2,1.73,1.73,0,0,1-1.73-1.73s0-.06,0-.1a16.92,16.92,0,0,0-2.24-.79,42.19,42.19,0,0,1-4.48-1.41c-1.94-.79-3.92-1.54-5.75-2.46a1.72,1.72,0,1,1-2.91-1.77,11.54,11.54,0,0,1-3-3.32A1.72,1.72,0,1,1,651,531h.05a13.7,13.7,0,0,1-.36-1.76,4.92,4.92,0,0,0-1-2.4,4.12,4.12,0,0,1-.35-5.42,1.72,1.72,0,0,1,.95-1.26c.48-.58,1.06-1.41,0-1.88a20.3,20.3,0,0,1-2.68-1.5,1.72,1.72,0,1,1-2.84-1.74,8.83,8.83,0,0,0-5.09-1.22c-.31-.35-.61-.46-.89-.25a1.14,1.14,0,0,0-.28.31h-1.75c-.58,0-1.16,0-1.74-.06a20.8,20.8,0,0,0-3.13.07,9.21,9.21,0,0,1-5.15-.7h0c-.31-.48-.63-.94-1.3-.91-1.34-.52-3.19-.1-4.33-1a2.1,2.1,0,0,1-.45-.47,1.73,1.73,0,1,1-.61-1.48c-.79-2-2.59-3-4-4.43a8.11,8.11,0,0,0-1-.88,1.79,1.79,0,1,1-.48-.33c-1.61-1.08-3.45-1.73-5.13-2.83a1.73,1.73,0,0,1-2.65-2.19,12.82,12.82,0,0,0-11.64-2.27,20,20,0,0,1-6.07.89c-3.72-.1-7.94,1.07-10.46-3.18a1.9,1.9,0,0,0-1.25-.63,38.11,38.11,0,0,0-5.27-.62,1.73,1.73,0,1,1-2.31.2,10.15,10.15,0,0,0-1.1.28c-4.21,1.32-4.27,1.13-5.76-2.79l-4.42,2.26h-.21c-.17-2.12,1.19-2.83,2.66-3.57.31-.16.62-.31.92-.48l.13-.07a6.6,6.6,0,0,0,.84-.57,4,4,0,0,0,1.09-1.34c-2.74.91-5.21,1.69-7.58,2.49a1.71,1.71,0,0,1-2.47.86,10.56,10.56,0,0,0-3.93,2.43,1.72,1.72,0,1,1-1.77,2.57,10.49,10.49,0,0,0-.74,2.31,3,3,0,0,1-1.43,2.43l-.26.13a1.73,1.73,0,0,1-2,1.36,40.72,40.72,0,0,0-3.14,3.25,1.73,1.73,0,1,1-3.21.08c-2.54-2-5.45-1.92-8.55-1.48s-6,.46-9,.67a5,5,0,0,1-1.24-.05,1.72,1.72,0,1,1-.93-.28h.08a3.87,3.87,0,0,1-1.54-1.46c-.3-.46-.6-.93-.91-1.39a9.28,9.28,0,0,0-3.65-3.42h0v0a2.53,2.53,0,0,1,.09-.38,5.89,5.89,0,0,0-.42-2.39l-.18-.48a9.63,9.63,0,0,1-.72-2.69,4.63,4.63,0,0,1,0-.88c0-.33.05-.67.09-1a1.68,1.68,0,0,1,.15-1.83c.14-2.74.08-5.5.15-8.25h0a1.51,1.51,0,0,0-.58-1,1.59,1.59,0,0,0-1.16-.19c-2-.34-4-.6-6-.83a1.72,1.72,0,1,1-3.29-.38c-2.59-.28-5.19-.56-7.77-.94-3.19-.47-4.76-.76-5.56-2.3a1.71,1.71,0,0,1-.85.23,1.73,1.73,0,1,1,0-3.45h.12v-.08a1.33,1.33,0,0,0-.63-1.23l-.5-.52a1.81,1.81,0,0,1,.66-1.19,11.28,11.28,0,0,1,1.91-1c3.75-2,6.53-4.42,6.91-9.27.42-5.35.88-4.88-4.56-4.17a24.4,24.4,0,0,0-7.81,2.19,1.72,1.72,0,0,1-2.7,1.71,14.42,14.42,0,0,0-2.84,3,1.72,1.72,0,0,1-1.62,2.88c-.11.26-.23.51-.34.78a3.74,3.74,0,0,1-2.61,2.1l-.68.21a1.72,1.72,0,1,1-3.31.77c-4.61.66-8.54-.69-11.33-5.81a3.36,3.36,0,0,0-.8-.86c-3.71-3.2-6-7.05-6.06-12.13,0-.77-.07-1.54-.14-2.3a1.73,1.73,0,1,1-.32-2.45c-.16-1-.35-2.07-.56-3.09-.39-1.93-.45-3.64.81-5.28.53-.69.79-1.34.39-1.7a1.71,1.71,0,0,1,.06.44,1.73,1.73,0,1,1-3.18-.92,14,14,0,0,1-6.81-3.91c-2.14-2-3.57-4.39-5.24-6.67-3-4.15-6.31-5.17-10.9-3.31a11.94,11.94,0,0,0-1.63.66c-1.43.85-2.46.47-3.58-.71-2.36-2.49-4.87-4.82-7.3-7.24-4-4-7.55-4.34-12.36-1.36a5.07,5.07,0,0,1-2.17.79l-.38,0a1.72,1.72,0,1,1-3.34.59,1.74,1.74,0,0,1,0-.34,26.62,26.62,0,0,1-7.41-.32,1.73,1.73,0,1,1-2.53-.79,14,14,0,0,1-2.3-1.2c-.73-.47-1.7-.56-2.42-1a11.44,11.44,0,0,0-8.4-1.67,1.72,1.72,0,0,1-3.29.64c-1.26.3-2.53.63-3.82.9,1.68,2.61,3.28,5.21,4.89,7.78a1.72,1.72,0,0,1,1.78,2.79q1.13,1.74,2.3,3.43a1.72,1.72,0,1,1,1.81,2.53c.73,1,1.48,2,2.27,2.93s2,1.9,1.21,3.34,0,2.11,1.13,2.74a42,42,0,0,0,3.78,2.26,8.61,8.61,0,0,1,5.5,7.29,3.21,3.21,0,0,0,1.83,2.8,26.72,26.72,0,0,1,6.37,4.67c.55.49,1.18,1.87,2,.91s1.33-2.3,0-3.37c-.69-.54-1.45-1-2.19-1.48l-.2-.13a1.67,1.67,0,0,1-2.3-1.8,4.14,4.14,0,0,1-.65-1q-.67-1.56-1.43-3.06a1.72,1.72,0,1,1-1.53-2.83,117.77,117.77,0,0,0-11.69-16c-2-2.39-2.8-5.3-3.88-8.33a1.7,1.7,0,0,1-.5.08,1.74,1.74,0,1,1,1.47-.83c3.86.77,6.81,2.15,8.36,6a20.56,20.56,0,0,0,1.26,2.49,1.7,1.7,0,0,1,1.27,2.11c.53.84,1.06,1.68,1.55,2.54.32.56.66,1.11,1,1.64a1.72,1.72,0,1,1,2,2.62,13.63,13.63,0,0,0,3.22,2.61,1.72,1.72,0,0,1,3,1.2c0,.05,0,.1,0,.15a3.23,3.23,0,0,1,2,3.72,1.62,1.62,0,0,0,.27,1.19,1.72,1.72,0,1,1,3.14,1.38,14.75,14.75,0,0,1,3.31,2.89l.26,0a1.72,1.72,0,0,1,1.69,2.08,11.55,11.55,0,0,0,1.59,1.3,15.7,15.7,0,0,1,2.71,2.27,1.72,1.72,0,0,1,1.34,1.64,16.28,16.28,0,0,1,2.11,4.27,1.74,1.74,0,1,1,.74,2.83c.23,1.12.39,2.28.52,3.46.1.88.3,1.75.31,2.62a2.14,2.14,0,0,0,1.38,2c4.31,2.22,8.55,4.6,12.87,6.8a1.72,1.72,0,1,1,2.83,1.4,75.44,75.44,0,0,0,13.24,5.09,1.73,1.73,0,1,1,2.22.54A48.84,48.84,0,0,0,454,480c2.27.25,4.33.51,6.56-.37,2.74-1.08,5.47-1.06,7.86,1.29a14,14,0,0,0,3,2.5,5.81,5.81,0,0,0,1.25.5v0l.33.64,1.19.22a1.72,1.72,0,1,1,.63.12h-.05c3.24.68,6.49,1.55,9.54-.48a1.73,1.73,0,1,1,2.5-.11q.61.32,1.21.67c1.59.94,3.17,1.92,5.15,1.94h0l.06.52c0,.18.12.34.18.51a9.29,9.29,0,0,0,.68,1.56,22,22,0,0,0,2.14,3,1.72,1.72,0,0,1,1.69,1.72,1.71,1.71,0,0,1-.06.44l.17.23c.68,1.06,1.06,2.6,2.75,2.69a1,1,0,0,0,.09.38A1.71,1.71,0,0,1,503,500c6,4.12,13,6.74,18.31,11.89a1.85,1.85,0,0,0,1.74.44,1.73,1.73,0,1,1,.89-.49,2.76,2.76,0,0,0,.7-1,12.11,12.11,0,0,1,3-4,1.73,1.73,0,1,1,2.38-1.6,1.71,1.71,0,0,1-.06.43c2-.24,4.59.48,5.25,1.76a40.55,40.55,0,0,1,3,7.3,1.71,1.71,0,0,1,.79-.2,1.73,1.73,0,1,1,0,3.45h-.11c.34,2.69.09,5.49,1.27,8a1.71,1.71,0,0,1,.12,2.44,5.5,5.5,0,0,1-1.27,1.37c-1.24,1-2.75,1.84-3.9,3a1.72,1.72,0,0,1-1.09,1.48,5.32,5.32,0,0,0-.33.75.51.51,0,0,0-.52.11,1.21,1.21,0,0,0-1.57.6,10,10,0,0,0-.43,1c-1.19,2.79-2.2,5.66-3.55,8.36-1.52,3-2.37,5.91.17,8.85a2.32,2.32,0,0,1,.52.89,1,1,0,0,1,0,.37c-.07.58-.69,1-1.56,1.21-.79-1.43-1.24-.33-1.77.23-1.29.46-1.88,1.09-1.86,2a2.32,2.32,0,0,0,.08.55,5.08,5.08,0,0,0,.59,1.29c1.62,2.67,2.8,5.61,4.76,8.08,1.68,2.12,3.27,4.31,4.81,6.53a1.71,1.71,0,0,1,1.6,2.33c.88,1.33,1.73,2.68,2.56,4a1.72,1.72,0,1,1,1.6,2.67c.82,1.42,1.64,2.85,2.41,4.31,1.05,2,2.64,3.85,3.07,6a4.08,4.08,0,0,0,2.78,3.25q5.93,2.74,11.84,5.51a1.72,1.72,0,0,1,2.84,1.31v0l7.15,3.32c1.73.8,3.16,1.49,1.95,4a4.13,4.13,0,0,0-.3,2l.17,0a1.72,1.72,0,0,1,.18,3.43c.23,2.56.36,5.13.36,7.69a1.72,1.72,0,0,1-.06,3.28,75.3,75.3,0,0,1-.67,7.67l.19,0a1.73,1.73,0,1,1-.72,3.29c-1.47,8.35-2.62,16.73-3.35,25.14a1.69,1.69,0,0,1-.13,1.74q-.34,4.28-.52,8.57a1.71,1.71,0,0,1-.12,3c-.08,2.63-.1,5.26-.09,7.9a1.72,1.72,0,0,1,0,3.15c0,.46,0,.91,0,1.37a11.53,11.53,0,0,1-.9,4.57q-.4,1-.76,2.07a1.73,1.73,0,1,1-.68,2.06A95.31,95.31,0,0,0,560.73,713a1.73,1.73,0,0,1-.35,3.42h-.13c-.35,2.67-.67,5.34-1,8a1.72,1.72,0,1,1-.29,2.28c-.15,1.16-.3,2.32-.47,3.47-.1.73-.45,1.72.31,2.17s1.32-.53,1.93-.94c.86-.58,1.56-1.94,2.68-1.4a1.29,1.29,0,0,1,.48.41,1.72,1.72,0,1,1,.36,1.95c0,.2,0,.41,0,.6-.23,2.92-.35,5.83-.41,8.74a1.72,1.72,0,1,1,0,.84c0,3.31,0,6.62.11,9.93a1.73,1.73,0,1,1,.06,1.52q.17,4.43.46,8.85a1.73,1.73,0,1,1,.19,2.84q.25,3.73.52,7.46c0,.13,0,.26,0,.39a1.72,1.72,0,1,1,.56,3.4c1.09,4.69,3.39,8.93,5.5,13.22a1.71,1.71,0,0,1,1.42,2.43,10.7,10.7,0,0,0,2.93,2.68c.18-3.89,2.2-4.28,4.59-4a1.69,1.69,0,0,1,2.15-1,9.12,9.12,0,0,1-.94-7.72,1.72,1.72,0,1,1,1.59-2.92,25.94,25.94,0,0,0,2.29-3.75,1.7,1.7,0,0,1,1-2.22c.18-.45.37-.89.54-1.35.81-2.19,1.46-4.6,3.53-6,2.57-1.69,3.26-4.21,3.74-6.84a1.74,1.74,0,1,1,.13-.74l.1-.58a2.37,2.37,0,0,0-1.74-3c-2.24-.56-3.3-2.3-4.48-4-1.34-1.9-1-3.47,1.27-4,2.86-.64,4-2.42,4.82-5.05,1-2.9,1.63-6.35,4.64-7.89,2.15-1.1,2.9-2.47,2.63-4.62a6.06,6.06,0,0,1,.3-3,1.72,1.72,0,0,1,2.08-2.54,9.19,9.19,0,0,1,1.3-.79c.53-.26,1.37-.4,1-1.07-1.33-2.62.48-4.72,1-7,.65-2.82,2.27-3.69,5.34-3.58,4.81.17,10.22-.41,12.93-4.75a26.46,26.46,0,0,0,1.91-3.71,38.36,38.36,0,0,0,1.33-3.72,1.72,1.72,0,0,1,.86-3.13c.45-1.8.84-3.61,1.22-5.4l.12-.84c1.48-.09,3,.32,4.5.19a4.22,4.22,0,0,0,2.52-1c.4-.35.77-.73,1.16-1.09a1.72,1.72,0,0,1,2.43-2.43c.4-.42.8-.83,1.19-1.26a6.71,6.71,0,0,0,1.59-2.55,1.73,1.73,0,0,1,0-.32,1.71,1.71,0,0,1,.11-.58,2.35,2.35,0,0,0-.32-1c-2-3.33,0-5.74,2-7.41l.46-.39a1.75,1.75,0,1,1,1-.82A36.06,36.06,0,0,0,655.59,661a1.72,1.72,0,0,1,1.42-3.06,43.64,43.64,0,0,0,2.62-9.36,6.81,6.81,0,0,1,.5-1.68c.34-.74.62-1.52.9-2.32a1.72,1.72,0,0,1,1.28-3.2,6.83,6.83,0,0,1,2.16-2.65l1.14-.79a1.72,1.72,0,0,1,1.69-2.09,1.71,1.71,0,0,1,.86.24c1.18-.86,2.36-1.71,3.57-2.53a1.73,1.73,0,1,1,2.38-1.6s0,.06,0,.1a22.69,22.69,0,0,1,11.06-3.5,5.35,5.35,0,0,0,2.47-.65,1.72,1.72,0,1,1,2.22-2.62c0-.12.1-.22.15-.35,1.88-5.43,3.73-10.88,6.89-15.76.57-.88.36-1.9.39-2.87q.21-6.29.4-12.58a1.71,1.71,0,0,1,0-.26,1.72,1.72,0,0,1,0-.38c0-1.27.08-2.54.11-3.81s.19-2.16,1.55-2.41c2-.36,3.14-1.78,4.25-3.32C705.43,581,707,578.22,709.26,576.06ZM490.61,453.83a1.73,1.73,0,1,1-1.73,1.73A1.73,1.73,0,0,1,490.61,453.83Zm-5.08,5.61a1.73,1.73,0,1,1-1.73,1.73A1.73,1.73,0,0,1,485.53,459.44ZM383.69,431.78a1.73,1.73,0,1,1-1.73,1.73A1.73,1.73,0,0,1,383.69,431.78Zm-5.08-5.41a1.73,1.73,0,1,1-1.73,1.73A1.73,1.73,0,0,1,378.61,426.37Zm10.69-7.57a1.73,1.73,0,1,1,1.73-1.73A1.73,1.73,0,0,1,389.3,418.8Zm5.08,5.41a1.73,1.73,0,1,1,1.73-1.73A1.73,1.73,0,0,1,394.38,424.21Zm5.61,5.61a1.73,1.73,0,1,1,1.73-1.73A1.73,1.73,0,0,1,400,429.83Zm0-11a1.73,1.73,0,1,1,1.73-1.73A1.73,1.73,0,0,1,400,418.8Zm5.08,16.44a1.73,1.73,0,1,1,1.73-1.73A1.73,1.73,0,0,1,405.07,435.24Zm0-11a1.73,1.73,0,1,1,1.73-1.73A1.73,1.73,0,0,1,405.07,424.21Zm0-11a1.73,1.73,0,1,1,1.73-1.73A1.73,1.73,0,0,1,405.07,413.19Zm5.61,27.66a1.73,1.73,0,1,1,1.73-1.73A1.73,1.73,0,0,1,410.68,440.85Zm0-11a1.73,1.73,0,1,1,1.73-1.73A1.73,1.73,0,0,1,410.68,429.83Zm0-11a1.73,1.73,0,1,1,1.73-1.73A1.73,1.73,0,0,1,410.68,418.8Zm5.08,27.46a1.73,1.73,0,1,1,1.73-1.73A1.73,1.73,0,0,1,415.76,446.26Zm0-11a1.73,1.73,0,1,1,1.73-1.73A1.73,1.73,0,0,1,415.76,435.24Zm0-11a1.73,1.73,0,1,1,1.73-1.73A1.73,1.73,0,0,1,415.76,424.21Zm5.61,38.68a1.73,1.73,0,1,1,1.73-1.73A1.73,1.73,0,0,1,421.38,462.9Zm0-11a1.73,1.73,0,1,1,1.73-1.73A1.73,1.73,0,0,1,421.38,451.87Zm0-11a1.73,1.73,0,1,1,1.73-1.73A1.73,1.73,0,0,1,421.38,440.85Zm0-11a1.73,1.73,0,1,1,1.73-1.73A1.73,1.73,0,0,1,421.38,429.83Zm5.08,38.48a1.73,1.73,0,1,1,1.73-1.73A1.73,1.73,0,0,1,426.46,468.31Zm0-11a1.73,1.73,0,1,1,1.73-1.73A1.73,1.73,0,0,1,426.46,457.29Zm0-11a1.73,1.73,0,1,1,1.73-1.73A1.73,1.73,0,0,1,426.46,446.26Zm0-11a1.73,1.73,0,1,1,1.73-1.73A1.73,1.73,0,0,1,426.46,435.24Zm0-11a1.73,1.73,0,1,1,1.73-1.73A1.73,1.73,0,0,1,426.46,424.21Zm5.61,38.68a1.73,1.73,0,1,1,1.73-1.73A1.73,1.73,0,0,1,432.07,462.9Zm0-11a1.73,1.73,0,1,1,1.73-1.73A1.73,1.73,0,0,1,432.07,451.87Zm0-11a1.73,1.73,0,1,1,1.73-1.73A1.73,1.73,0,0,1,432.07,440.85Zm0-11a1.73,1.73,0,1,1,1.73-1.73A1.73,1.73,0,0,1,432.07,429.83Zm5.08,38.48a1.73,1.73,0,1,1,1.73-1.73A1.73,1.73,0,0,1,437.15,468.31Zm0-11a1.73,1.73,0,1,1,1.73-1.73A1.73,1.73,0,0,1,437.15,457.29Zm0-11a1.73,1.73,0,1,1,1.73-1.73A1.73,1.73,0,0,1,437.15,446.26Zm0-11a1.73,1.73,0,1,1,1.73-1.73A1.73,1.73,0,0,1,437.15,435.24Zm5.61,38.68a1.73,1.73,0,1,1,1.73-1.73A1.73,1.73,0,0,1,442.76,473.92Zm0-11a1.73,1.73,0,1,1,1.73-1.73A1.73,1.73,0,0,1,442.76,462.9Zm0-11a1.73,1.73,0,1,1,1.73-1.73A1.73,1.73,0,0,1,442.76,451.87Zm0-11a1.73,1.73,0,1,1,1.73-1.73A1.73,1.73,0,0,1,442.76,440.85Zm5.08,27.46a1.73,1.73,0,1,1,1.73-1.73A1.73,1.73,0,0,1,447.84,468.31Zm0-11a1.73,1.73,0,1,1,1.73-1.73A1.73,1.73,0,0,1,447.84,457.29Zm5.61,16.64a1.73,1.73,0,1,1,1.73-1.73A1.73,1.73,0,0,1,453.45,473.92Zm0-11a1.73,1.73,0,1,1,1.73-1.73A1.73,1.73,0,0,1,453.45,462.9Zm5.08,16.44a1.73,1.73,0,1,1,1.73-1.73A1.73,1.73,0,0,1,458.53,479.33Zm0-11a1.73,1.73,0,1,1,1.73-1.73A1.73,1.73,0,0,1,458.53,468.31Zm5.61,5.61a1.73,1.73,0,1,1,1.73-1.73A1.73,1.73,0,0,1,464.15,473.92Zm5.08,5.41a1.73,1.73,0,1,1,1.73-1.73A1.73,1.73,0,0,1,469.23,479.33Zm5.61-5.41a1.73,1.73,0,1,1,1.73-1.73A1.73,1.73,0,0,1,474.84,473.92Zm5.08,5.41a1.73,1.73,0,1,1,1.73-1.73A1.73,1.73,0,0,1,479.92,479.33Zm0-11a1.73,1.73,0,1,1,1.73-1.73A1.73,1.73,0,0,1,479.92,468.31Zm10.69,11a1.73,1.73,0,1,1,1.73-1.73A1.73,1.73,0,0,1,490.61,479.33Zm5.61,5.61a1.73,1.73,0,1,1,1.73-1.73A1.73,1.73,0,0,1,496.22,484.94Zm5.08,5.41a1.73,1.73,0,1,1,1.73-1.73A1.73,1.73,0,0,1,501.3,490.36Zm5.61,5.61a1.73,1.73,0,1,1,1.73-1.73A1.73,1.73,0,0,1,506.92,496Zm0-11a1.73,1.73,0,1,1,1.73-1.73A1.73,1.73,0,0,1,506.92,484.94ZM512,501.38a1.73,1.73,0,1,1,1.73-1.73A1.73,1.73,0,0,1,512,501.38Zm16.3,60.73a1.73,1.73,0,1,1,1.73-1.73A1.73,1.73,0,0,1,528.3,562.11Zm0-11a1.73,1.73,0,1,1,1.73-1.73A1.73,1.73,0,0,1,528.3,551.09Zm5.08,16.44a1.73,1.73,0,1,1,1.73-1.73A1.73,1.73,0,0,1,533.38,567.52Zm0-11a1.73,1.73,0,1,1,1.73-1.73A1.73,1.73,0,0,1,533.38,556.5Zm0-11a1.73,1.73,0,1,1,1.73-1.73A1.73,1.73,0,0,1,533.38,545.48ZM539,573.14a1.73,1.73,0,1,1,1.73-1.73A1.73,1.73,0,0,1,539,573.14Zm0-11a1.73,1.73,0,1,1,1.73-1.73A1.73,1.73,0,0,1,539,562.11Zm0-11a1.73,1.73,0,1,1,1.73-1.73A1.73,1.73,0,0,1,539,551.09Zm0-11a1.73,1.73,0,1,1,1.73-1.73A1.73,1.73,0,0,1,539,540.06Zm5.08,49.51a1.73,1.73,0,1,1,1.73-1.73A1.73,1.73,0,0,1,544.07,589.57Zm0-11a1.73,1.73,0,1,1,1.73-1.73A1.73,1.73,0,0,1,544.07,578.55Zm0-11a1.73,1.73,0,1,1,1.73-1.73A1.73,1.73,0,0,1,544.07,567.52Zm0-11a1.73,1.73,0,1,1,1.73-1.73A1.73,1.73,0,0,1,544.07,556.5Zm0-11a1.73,1.73,0,1,1,1.73-1.73A1.73,1.73,0,0,1,544.07,545.48Zm0-11a1.73,1.73,0,1,1,1.73-1.73A1.73,1.73,0,0,1,544.07,534.45Zm0-11a1.73,1.73,0,1,1,1.73-1.73A1.73,1.73,0,0,1,544.07,523.43Zm0-11a1.73,1.73,0,1,1,1.73-1.73A1.73,1.73,0,0,1,544.07,512.41Zm5.61,82.78a1.73,1.73,0,1,1,1.73-1.73A1.73,1.73,0,0,1,549.69,595.18Zm0-11a1.73,1.73,0,1,1,1.73-1.73A1.73,1.73,0,0,1,549.69,584.16Zm0-11a1.73,1.73,0,1,1,1.73-1.73A1.73,1.73,0,0,1,549.69,573.14Zm0-11a1.73,1.73,0,1,1,1.73-1.73A1.73,1.73,0,0,1,549.69,562.11Zm0-11a1.73,1.73,0,1,1,1.73-1.73A1.73,1.73,0,0,1,549.69,551.09Zm0-11a1.73,1.73,0,1,1,1.73-1.73A1.73,1.73,0,0,1,549.69,540.06Zm0-11a1.73,1.73,0,1,1,1.73-1.73A1.73,1.73,0,0,1,549.69,529Zm0-11a1.73,1.73,0,1,1,1.73-1.73A1.73,1.73,0,0,1,549.69,518Zm0-11a1.73,1.73,0,1,1,1.73-1.73A1.73,1.73,0,0,1,549.69,507Zm5.08,93.6a1.73,1.73,0,1,1,1.73-1.73A1.73,1.73,0,0,1,554.77,600.6Zm0-11a1.73,1.73,0,1,1,1.73-1.73A1.73,1.73,0,0,1,554.77,589.57Zm0-11a1.73,1.73,0,1,1,1.73-1.73A1.73,1.73,0,0,1,554.77,578.55Zm0-11a1.73,1.73,0,1,1,1.73-1.73A1.73,1.73,0,0,1,554.77,567.52Zm0-11a1.73,1.73,0,1,1,1.73-1.73A1.73,1.73,0,0,1,554.77,556.5Zm0-11a1.73,1.73,0,1,1,1.73-1.73A1.73,1.73,0,0,1,554.77,545.48Zm0-11a1.73,1.73,0,1,1,1.73-1.73A1.73,1.73,0,0,1,554.77,534.45Zm0-11a1.73,1.73,0,1,1,1.73-1.73A1.73,1.73,0,0,1,554.77,523.43Zm0-11a1.73,1.73,0,1,1,1.73-1.73A1.73,1.73,0,0,1,554.77,512.41Zm0-11a1.73,1.73,0,1,1,1.73-1.73A1.73,1.73,0,0,1,554.77,501.38Zm5.61,93.8a1.73,1.73,0,1,1,1.73-1.73A1.73,1.73,0,0,1,560.38,595.18Zm0-11a1.73,1.73,0,1,1,1.73-1.73A1.73,1.73,0,0,1,560.38,584.16Zm0-11a1.73,1.73,0,1,1,1.73-1.73A1.73,1.73,0,0,1,560.38,573.14Zm0-11a1.73,1.73,0,1,1,1.73-1.73A1.73,1.73,0,0,1,560.38,562.11Zm0-11a1.73,1.73,0,1,1,1.73-1.73A1.73,1.73,0,0,1,560.38,551.09Zm0-11a1.73,1.73,0,1,1,1.73-1.73A1.73,1.73,0,0,1,560.38,540.06Zm0-11a1.73,1.73,0,1,1,1.73-1.73A1.73,1.73,0,0,1,560.38,529Zm0-11a1.73,1.73,0,1,1,1.73-1.73A1.73,1.73,0,0,1,560.38,518Zm0-11a1.73,1.73,0,1,1,1.73-1.73A1.73,1.73,0,0,1,560.38,507Zm0-11a1.73,1.73,0,1,1,1.73-1.73A1.73,1.73,0,0,1,560.38,496Zm5.08,104.63a1.73,1.73,0,1,1,1.73-1.73A1.73,1.73,0,0,1,565.46,600.6Zm0-11a1.73,1.73,0,1,1,1.73-1.73A1.73,1.73,0,0,1,565.46,589.57Zm0-11a1.73,1.73,0,1,1,1.73-1.73A1.73,1.73,0,0,1,565.46,578.55Zm0-11a1.73,1.73,0,1,1,1.73-1.73A1.73,1.73,0,0,1,565.46,567.52Zm0-11a1.73,1.73,0,1,1,1.73-1.73A1.73,1.73,0,0,1,565.46,556.5Zm0-11a1.73,1.73,0,1,1,1.73-1.73A1.73,1.73,0,0,1,565.46,545.48Zm0-11a1.73,1.73,0,1,1,1.73-1.73A1.73,1.73,0,0,1,565.46,534.45Zm0-11a1.73,1.73,0,1,1,1.73-1.73A1.73,1.73,0,0,1,565.46,523.43Zm0-11a1.73,1.73,0,1,1,1.73-1.73A1.73,1.73,0,0,1,565.46,512.41Zm0-11a1.73,1.73,0,1,1,1.73-1.73A1.73,1.73,0,0,1,565.46,501.38Zm0,220.48a1.73,1.73,0,1,1,1.73-1.73A1.73,1.73,0,0,1,565.46,721.86Zm0-11a1.73,1.73,0,1,1,1.73-1.73A1.73,1.73,0,0,1,565.46,710.84Zm5.61,71.75a1.73,1.73,0,1,1,1.73-1.73A1.73,1.73,0,0,1,571.07,782.59Zm0-11a1.73,1.73,0,1,1,1.73-1.73A1.73,1.73,0,0,1,571.07,771.57Zm0-11a1.73,1.73,0,1,1,1.73-1.73A1.73,1.73,0,0,1,571.07,760.54Zm0-11a1.73,1.73,0,1,1,1.73-1.73A1.73,1.73,0,0,1,571.07,749.52Zm0-11a1.73,1.73,0,1,1,1.73-1.73A1.73,1.73,0,0,1,571.07,738.49Zm0-11a1.73,1.73,0,1,1,1.73-1.73A1.73,1.73,0,0,1,571.07,727.47Zm0-11a1.73,1.73,0,1,1,1.73-1.73A1.73,1.73,0,0,1,571.07,716.45Zm0-11a1.73,1.73,0,1,1,1.73-1.73A1.73,1.73,0,0,1,571.07,705.42Zm0-11a1.73,1.73,0,1,1,1.73-1.73A1.73,1.73,0,0,1,571.07,694.4Zm0-11a1.73,1.73,0,1,1,1.73-1.73A1.73,1.73,0,0,1,571.07,683.37Zm0-11a1.73,1.73,0,1,1,1.73-1.73A1.73,1.73,0,0,1,571.07,672.35Zm0-11a1.73,1.73,0,1,1,1.73-1.73A1.73,1.73,0,0,1,571.07,661.33Zm0-11a1.73,1.73,0,1,1,1.73-1.73A1.73,1.73,0,0,1,571.07,650.3Zm0-44.1a1.73,1.73,0,1,1,1.73-1.73A1.73,1.73,0,0,1,571.07,606.21Zm0-11a1.73,1.73,0,1,1,1.73-1.73A1.73,1.73,0,0,1,571.07,595.18Zm0-11a1.73,1.73,0,1,1,1.73-1.73A1.73,1.73,0,0,1,571.07,584.16Zm0-11a1.73,1.73,0,1,1,1.73-1.73A1.73,1.73,0,0,1,571.07,573.14Zm0-11a1.73,1.73,0,1,1,1.73-1.73A1.73,1.73,0,0,1,571.07,562.11Zm0-11a1.73,1.73,0,1,1,1.73-1.73A1.73,1.73,0,0,1,571.07,551.09Zm0-11a1.73,1.73,0,1,1,1.73-1.73A1.73,1.73,0,0,1,571.07,540.06Zm0-11a1.73,1.73,0,1,1,1.73-1.73A1.73,1.73,0,0,1,571.07,529Zm0-11a1.73,1.73,0,1,1,1.73-1.73A1.73,1.73,0,0,1,571.07,518Zm0-11a1.73,1.73,0,1,1,1.73-1.73A1.73,1.73,0,0,1,571.07,507Zm5.08,281a1.73,1.73,0,1,1,1.73-1.73A1.73,1.73,0,0,1,576.15,788Zm0-11a1.73,1.73,0,1,1,1.73-1.73A1.73,1.73,0,0,1,576.15,777Zm0-11a1.73,1.73,0,1,1,1.73-1.73A1.73,1.73,0,0,1,576.15,766Zm0-11a1.73,1.73,0,1,1,1.73-1.73A1.73,1.73,0,0,1,576.15,754.93Zm0-11a1.73,1.73,0,1,1,1.73-1.73A1.73,1.73,0,0,1,576.15,743.91Zm0-11a1.73,1.73,0,1,1,1.73-1.73A1.73,1.73,0,0,1,576.15,732.88Zm0-11a1.73,1.73,0,1,1,1.73-1.73A1.73,1.73,0,0,1,576.15,721.86Zm0-11a1.73,1.73,0,1,1,1.73-1.73A1.73,1.73,0,0,1,576.15,710.84Zm0-11a1.73,1.73,0,1,1,1.73-1.73A1.73,1.73,0,0,1,576.15,699.81Zm0-11a1.73,1.73,0,1,1,1.73-1.73A1.73,1.73,0,0,1,576.15,688.79Zm0-11a1.73,1.73,0,1,1,1.73-1.73A1.73,1.73,0,0,1,576.15,677.76Zm0-11a1.73,1.73,0,1,1,1.73-1.73A1.73,1.73,0,0,1,576.15,666.74Zm0-11a1.73,1.73,0,1,1,1.73-1.73A1.73,1.73,0,0,1,576.15,655.72Zm0-11a1.73,1.73,0,1,1,1.73-1.73A1.73,1.73,0,0,1,576.15,644.69Zm0-11a1.73,1.73,0,1,1,1.73-1.73A1.73,1.73,0,0,1,576.15,633.67Zm0-11a1.73,1.73,0,1,1,1.73-1.73A1.73,1.73,0,0,1,576.15,622.64Zm0-11a1.73,1.73,0,1,1,1.73-1.73A1.73,1.73,0,0,1,576.15,611.62Zm0-11a1.73,1.73,0,1,1,1.73-1.73A1.73,1.73,0,0,1,576.15,600.6Zm0-11a1.73,1.73,0,1,1,1.73-1.73A1.73,1.73,0,0,1,576.15,589.57Zm0-11a1.73,1.73,0,1,1,1.73-1.73A1.73,1.73,0,0,1,576.15,578.55Zm0-11a1.73,1.73,0,1,1,1.73-1.73A1.73,1.73,0,0,1,576.15,567.52Zm0-11a1.73,1.73,0,1,1,1.73-1.73A1.73,1.73,0,0,1,576.15,556.5Zm0-11a1.73,1.73,0,1,1,1.73-1.73A1.73,1.73,0,0,1,576.15,545.48Zm0-11a1.73,1.73,0,1,1,1.73-1.73A1.73,1.73,0,0,1,576.15,534.45Zm0-11a1.73,1.73,0,1,1,1.73-1.73A1.73,1.73,0,0,1,576.15,523.43Zm0-11a1.73,1.73,0,1,1,1.73-1.73A1.73,1.73,0,0,1,576.15,512.41Zm0-11a1.73,1.73,0,1,1,1.73-1.73A1.73,1.73,0,0,1,576.15,501.38Zm5.61,270.18a1.73,1.73,0,1,1,1.73-1.73A1.73,1.73,0,0,1,581.76,771.57Zm0-11a1.73,1.73,0,1,1,1.73-1.73A1.73,1.73,0,0,1,581.76,760.54Zm0-11a1.73,1.73,0,1,1,1.73-1.73A1.73,1.73,0,0,1,581.76,749.52Zm0-11a1.73,1.73,0,1,1,1.73-1.73A1.73,1.73,0,0,1,581.76,738.49Zm0-11a1.73,1.73,0,1,1,1.73-1.73A1.73,1.73,0,0,1,581.76,727.47Zm0-11a1.73,1.73,0,1,1,1.73-1.73A1.73,1.73,0,0,1,581.76,716.45Zm0-11a1.73,1.73,0,1,1,1.73-1.73A1.73,1.73,0,0,1,581.76,705.42Zm0-11a1.73,1.73,0,1,1,1.73-1.73A1.73,1.73,0,0,1,581.76,694.4Zm0-11a1.73,1.73,0,1,1,1.73-1.73A1.73,1.73,0,0,1,581.76,683.37Zm0-11a1.73,1.73,0,1,1,1.73-1.73A1.73,1.73,0,0,1,581.76,672.35Zm0-11a1.73,1.73,0,1,1,1.73-1.73A1.73,1.73,0,0,1,581.76,661.33Zm0-11a1.73,1.73,0,1,1,1.73-1.73A1.73,1.73,0,0,1,581.76,650.3Zm0-11a1.73,1.73,0,1,1,1.73-1.73A1.73,1.73,0,0,1,581.76,639.28Zm0-11a1.73,1.73,0,1,1,1.73-1.73A1.73,1.73,0,0,1,581.76,628.26Zm0-11a1.73,1.73,0,1,1,1.73-1.73A1.73,1.73,0,0,1,581.76,617.23Zm0-11a1.73,1.73,0,1,1,1.73-1.73A1.73,1.73,0,0,1,581.76,606.21Zm0-11a1.73,1.73,0,1,1,1.73-1.73A1.73,1.73,0,0,1,581.76,595.18Zm0-11a1.73,1.73,0,1,1,1.73-1.73A1.73,1.73,0,0,1,581.76,584.16Zm0-11a1.73,1.73,0,1,1,1.73-1.73A1.73,1.73,0,0,1,581.76,573.14Zm0-11a1.73,1.73,0,1,1,1.73-1.73A1.73,1.73,0,0,1,581.76,562.11Zm0-11a1.73,1.73,0,1,1,1.73-1.73A1.73,1.73,0,0,1,581.76,551.09Zm0-11a1.73,1.73,0,1,1,1.73-1.73A1.73,1.73,0,0,1,581.76,540.06Zm0-11a1.73,1.73,0,1,1,1.73-1.73A1.73,1.73,0,0,1,581.76,529Zm0-11a1.73,1.73,0,1,1,1.73-1.73A1.73,1.73,0,0,1,581.76,518Zm0-11a1.73,1.73,0,1,1,1.73-1.73A1.73,1.73,0,0,1,581.76,507Zm5.08,259a1.73,1.73,0,1,1,1.73-1.73A1.73,1.73,0,0,1,586.84,766Zm1.73-12.75a1.73,1.73,0,1,1-1.73-1.73A1.73,1.73,0,0,1,588.57,753.2Zm-1.73-9.3a1.73,1.73,0,1,1,1.73-1.73A1.73,1.73,0,0,1,586.84,743.91Zm0-11a1.73,1.73,0,1,1,1.73-1.73A1.73,1.73,0,0,1,586.84,732.88Zm0-11a1.73,1.73,0,1,1,1.73-1.73A1.73,1.73,0,0,1,586.84,721.86Zm0-11a1.73,1.73,0,1,1,1.73-1.73A1.73,1.73,0,0,1,586.84,710.84Zm0-11a1.73,1.73,0,1,1,1.73-1.73A1.73,1.73,0,0,1,586.84,699.81Zm0-11a1.73,1.73,0,1,1,1.73-1.73A1.73,1.73,0,0,1,586.84,688.79Zm0-11a1.73,1.73,0,1,1,1.73-1.73A1.73,1.73,0,0,1,586.84,677.76Zm0-11a1.73,1.73,0,1,1,1.73-1.73A1.73,1.73,0,0,1,586.84,666.74Zm0-11a1.73,1.73,0,1,1,1.73-1.73A1.73,1.73,0,0,1,586.84,655.72Zm0-11a1.73,1.73,0,1,1,1.73-1.73A1.73,1.73,0,0,1,586.84,644.69Zm0-11a1.73,1.73,0,1,1,1.73-1.73A1.73,1.73,0,0,1,586.84,633.67Zm0-11a1.73,1.73,0,1,1,1.73-1.73A1.73,1.73,0,0,1,586.84,622.64Zm0-11a1.73,1.73,0,1,1,1.73-1.73A1.73,1.73,0,0,1,586.84,611.62Zm0-11a1.73,1.73,0,1,1,1.73-1.73A1.73,1.73,0,0,1,586.84,600.6Zm0-11a1.73,1.73,0,1,1,1.73-1.73A1.73,1.73,0,0,1,586.84,589.57Zm0-11a1.73,1.73,0,1,1,1.73-1.73A1.73,1.73,0,0,1,586.84,578.55Zm0-11a1.73,1.73,0,1,1,1.73-1.73A1.73,1.73,0,0,1,586.84,567.52Zm0-11a1.73,1.73,0,1,1,1.73-1.73A1.73,1.73,0,0,1,586.84,556.5Zm0-11a1.73,1.73,0,1,1,1.73-1.73A1.73,1.73,0,0,1,586.84,545.48Zm0-11a1.73,1.73,0,1,1,1.73-1.73A1.73,1.73,0,0,1,586.84,534.45Zm0-11a1.73,1.73,0,1,1,1.73-1.73A1.73,1.73,0,0,1,586.84,523.43Zm0-11a1.73,1.73,0,1,1,1.73-1.73A1.73,1.73,0,0,1,586.84,512.41Zm0-11a1.73,1.73,0,1,1,1.73-1.73A1.73,1.73,0,0,1,586.84,501.38Zm5.61,237.11a1.73,1.73,0,1,1,1.73-1.73A1.73,1.73,0,0,1,592.46,738.49Zm0-11a1.73,1.73,0,1,1,1.73-1.73A1.73,1.73,0,0,1,592.46,727.47Zm0-11a1.73,1.73,0,1,1,1.73-1.73A1.73,1.73,0,0,1,592.46,716.45Zm0-11a1.73,1.73,0,1,1,1.73-1.73A1.73,1.73,0,0,1,592.46,705.42Zm0-11a1.73,1.73,0,1,1,1.73-1.73A1.73,1.73,0,0,1,592.46,694.4Zm0-11a1.73,1.73,0,1,1,1.73-1.73A1.73,1.73,0,0,1,592.46,683.37Zm0-11a1.73,1.73,0,1,1,1.73-1.73A1.73,1.73,0,0,1,592.46,672.35Zm0-11a1.73,1.73,0,1,1,1.73-1.73A1.73,1.73,0,0,1,592.46,661.33Zm0-11a1.73,1.73,0,1,1,1.73-1.73A1.73,1.73,0,0,1,592.46,650.3Zm0-11a1.73,1.73,0,1,1,1.73-1.73A1.73,1.73,0,0,1,592.46,639.28Zm0-11a1.73,1.73,0,1,1,1.73-1.73A1.73,1.73,0,0,1,592.46,628.26Zm0-11a1.73,1.73,0,1,1,1.73-1.73A1.73,1.73,0,0,1,592.46,617.23Zm0-11a1.73,1.73,0,1,1,1.73-1.73A1.73,1.73,0,0,1,592.46,606.21Zm0-11a1.73,1.73,0,1,1,1.73-1.73A1.73,1.73,0,0,1,592.46,595.18Zm0-11a1.73,1.73,0,1,1,1.73-1.73A1.73,1.73,0,0,1,592.46,584.16Zm0-11a1.73,1.73,0,1,1,1.73-1.73A1.73,1.73,0,0,1,592.46,573.14Zm0-11a1.73,1.73,0,1,1,1.73-1.73A1.73,1.73,0,0,1,592.46,562.11Zm0-11a1.73,1.73,0,1,1,1.73-1.73A1.73,1.73,0,0,1,592.46,551.09Zm0-11a1.73,1.73,0,1,1,1.73-1.73A1.73,1.73,0,0,1,592.46,540.06Zm0-11a1.73,1.73,0,1,1,1.73-1.73A1.73,1.73,0,0,1,592.46,529Zm0-11a1.73,1.73,0,1,1,1.73-1.73A1.73,1.73,0,0,1,592.46,518Zm0-11a1.73,1.73,0,1,1,1.73-1.73A1.73,1.73,0,0,1,592.46,507Zm5.08,225.89a1.73,1.73,0,1,1,1.73-1.73A1.73,1.73,0,0,1,597.54,732.88Zm0-11a1.73,1.73,0,1,1,1.73-1.73A1.73,1.73,0,0,1,597.54,721.86Zm0-11a1.73,1.73,0,1,1,1.73-1.73A1.73,1.73,0,0,1,597.54,710.84Zm0-11a1.73,1.73,0,1,1,1.73-1.73A1.73,1.73,0,0,1,597.54,699.81Zm0-11a1.73,1.73,0,1,1,1.73-1.73A1.73,1.73,0,0,1,597.54,688.79Zm0-11a1.73,1.73,0,1,1,1.73-1.73A1.73,1.73,0,0,1,597.54,677.76Zm0-11a1.73,1.73,0,1,1,1.73-1.73A1.73,1.73,0,0,1,597.54,666.74Zm0-11a1.73,1.73,0,1,1,1.73-1.73A1.73,1.73,0,0,1,597.54,655.72Zm0-11a1.73,1.73,0,1,1,1.73-1.73A1.73,1.73,0,0,1,597.54,644.69Zm0-11a1.73,1.73,0,1,1,1.73-1.73A1.73,1.73,0,0,1,597.54,633.67Zm0-11a1.73,1.73,0,1,1,1.73-1.73A1.73,1.73,0,0,1,597.54,622.64Zm0-11a1.73,1.73,0,1,1,1.73-1.73A1.73,1.73,0,0,1,597.54,611.62Zm0-11a1.73,1.73,0,1,1,1.73-1.73A1.73,1.73,0,0,1,597.54,600.6Zm0-11a1.73,1.73,0,1,1,1.73-1.73A1.73,1.73,0,0,1,597.54,589.57Zm0-11a1.73,1.73,0,1,1,1.73-1.73A1.73,1.73,0,0,1,597.54,578.55Zm0-11a1.73,1.73,0,1,1,1.73-1.73A1.73,1.73,0,0,1,597.54,567.52Zm0-11a1.73,1.73,0,1,1,1.73-1.73A1.73,1.73,0,0,1,597.54,556.5Zm0-11a1.73,1.73,0,1,1,1.73-1.73A1.73,1.73,0,0,1,597.54,545.48Zm0-11a1.73,1.73,0,1,1,1.73-1.73A1.73,1.73,0,0,1,597.54,534.45Zm0-11a1.73,1.73,0,1,1,1.73-1.73A1.73,1.73,0,0,1,597.54,523.43Zm0-11a1.73,1.73,0,1,1,1.73-1.73A1.73,1.73,0,0,1,597.54,512.41Zm0-11a1.73,1.73,0,1,1,1.73-1.73A1.73,1.73,0,0,1,597.54,501.38Zm5.61,215.07a1.73,1.73,0,1,1,1.73-1.73A1.73,1.73,0,0,1,603.15,716.45Zm0-11a1.73,1.73,0,1,1,1.73-1.73A1.73,1.73,0,0,1,603.15,705.42Zm0-11a1.73,1.73,0,1,1,1.73-1.73A1.73,1.73,0,0,1,603.15,694.4Zm0-11a1.73,1.73,0,1,1,1.73-1.73A1.73,1.73,0,0,1,603.15,683.37Zm0-11a1.73,1.73,0,1,1,1.73-1.73A1.73,1.73,0,0,1,603.15,672.35Zm0-11a1.73,1.73,0,1,1,1.73-1.73A1.73,1.73,0,0,1,603.15,661.33Zm0-11a1.73,1.73,0,1,1,1.73-1.73A1.73,1.73,0,0,1,603.15,650.3Zm0-11a1.73,1.73,0,1,1,1.73-1.73A1.73,1.73,0,0,1,603.15,639.28Zm0-11a1.73,1.73,0,1,1,1.73-1.73A1.73,1.73,0,0,1,603.15,628.26Zm0-11a1.73,1.73,0,1,1,1.73-1.73A1.73,1.73,0,0,1,603.15,617.23Zm0-11a1.73,1.73,0,1,1,1.73-1.73A1.73,1.73,0,0,1,603.15,606.21Zm0-11a1.73,1.73,0,1,1,1.73-1.73A1.73,1.73,0,0,1,603.15,595.18Zm0-11a1.73,1.73,0,1,1,1.73-1.73A1.73,1.73,0,0,1,603.15,584.16Zm0-11a1.73,1.73,0,1,1,1.73-1.73A1.73,1.73,0,0,1,603.15,573.14Zm0-11a1.73,1.73,0,1,1,1.73-1.73A1.73,1.73,0,0,1,603.15,562.11Zm0-11a1.73,1.73,0,1,1,1.73-1.73A1.73,1.73,0,0,1,603.15,551.09Zm0-11a1.73,1.73,0,1,1,1.73-1.73A1.73,1.73,0,0,1,603.15,540.06Zm0-11a1.73,1.73,0,1,1,1.73-1.73A1.73,1.73,0,0,1,603.15,529Zm0-11a1.73,1.73,0,1,1,1.73-1.73A1.73,1.73,0,0,1,603.15,518Zm0-11a1.73,1.73,0,1,1,1.73-1.73A1.73,1.73,0,0,1,603.15,507Zm5.08,203.84a1.73,1.73,0,1,1,1.73-1.73A1.73,1.73,0,0,1,608.23,710.84Zm0-11a1.73,1.73,0,1,1,1.73-1.73A1.73,1.73,0,0,1,608.23,699.81Zm0-11a1.73,1.73,0,1,1,1.73-1.73A1.73,1.73,0,0,1,608.23,688.79Zm0-11A1.73,1.73,0,1,1,610,676,1.73,1.73,0,0,1,608.23,677.76Zm0-11A1.73,1.73,0,1,1,610,665,1.73,1.73,0,0,1,608.23,666.74Zm0-11A1.73,1.73,0,1,1,610,654,1.73,1.73,0,0,1,608.23,655.72Zm0-11A1.73,1.73,0,1,1,610,643,1.73,1.73,0,0,1,608.23,644.69Zm0-11a1.73,1.73,0,1,1,1.73-1.73A1.73,1.73,0,0,1,608.23,633.67Zm0-11a1.73,1.73,0,1,1,1.73-1.73A1.73,1.73,0,0,1,608.23,622.64Zm0-11a1.73,1.73,0,1,1,1.73-1.73A1.73,1.73,0,0,1,608.23,611.62Zm0-11a1.73,1.73,0,1,1,1.73-1.73A1.73,1.73,0,0,1,608.23,600.6Zm0-11a1.73,1.73,0,1,1,1.73-1.73A1.73,1.73,0,0,1,608.23,589.57Zm0-11a1.73,1.73,0,1,1,1.73-1.73A1.73,1.73,0,0,1,608.23,578.55Zm0-11A1.73,1.73,0,1,1,610,565.8,1.73,1.73,0,0,1,608.23,567.52Zm0-11a1.73,1.73,0,1,1,1.73-1.73A1.73,1.73,0,0,1,608.23,556.5Zm0-11a1.73,1.73,0,1,1,1.73-1.73A1.73,1.73,0,0,1,608.23,545.48Zm0-11a1.73,1.73,0,1,1,1.73-1.73A1.73,1.73,0,0,1,608.23,534.45Zm0-11A1.73,1.73,0,1,1,610,521.7,1.73,1.73,0,0,1,608.23,523.43Zm0-11a1.73,1.73,0,1,1,1.73-1.73A1.73,1.73,0,0,1,608.23,512.41Zm5.61,193a1.73,1.73,0,1,1,1.73-1.73A1.73,1.73,0,0,1,613.84,705.42Zm0-11a1.73,1.73,0,1,1,1.73-1.73A1.73,1.73,0,0,1,613.84,694.4Zm0-11a1.73,1.73,0,1,1,1.73-1.73A1.73,1.73,0,0,1,613.84,683.37Zm0-11a1.73,1.73,0,1,1,1.73-1.73A1.73,1.73,0,0,1,613.84,672.35Zm0-11a1.73,1.73,0,1,1,1.73-1.73A1.73,1.73,0,0,1,613.84,661.33Zm0-11a1.73,1.73,0,1,1,1.73-1.73A1.73,1.73,0,0,1,613.84,650.3Zm0-11a1.73,1.73,0,1,1,1.73-1.73A1.73,1.73,0,0,1,613.84,639.28Zm0-11a1.73,1.73,0,1,1,1.73-1.73A1.73,1.73,0,0,1,613.84,628.26Zm0-11a1.73,1.73,0,1,1,1.73-1.73A1.73,1.73,0,0,1,613.84,617.23Zm0-11a1.73,1.73,0,1,1,1.73-1.73A1.73,1.73,0,0,1,613.84,606.21Zm0-11a1.73,1.73,0,1,1,1.73-1.73A1.73,1.73,0,0,1,613.84,595.18Zm0-11a1.73,1.73,0,1,1,1.73-1.73A1.73,1.73,0,0,1,613.84,584.16Zm0-11a1.73,1.73,0,1,1,1.73-1.73A1.73,1.73,0,0,1,613.84,573.14Zm0-11a1.73,1.73,0,1,1,1.73-1.73A1.73,1.73,0,0,1,613.84,562.11Zm0-11a1.73,1.73,0,1,1,1.73-1.73A1.73,1.73,0,0,1,613.84,551.09Zm0-11a1.73,1.73,0,1,1,1.73-1.73A1.73,1.73,0,0,1,613.84,540.06Zm0-11a1.73,1.73,0,1,1,1.73-1.73A1.73,1.73,0,0,1,613.84,529Zm0-11a1.73,1.73,0,1,1,1.73-1.73A1.73,1.73,0,0,1,613.84,518Zm5.08,192.82a1.73,1.73,0,1,1,1.73-1.73A1.73,1.73,0,0,1,618.92,710.84Zm0-11a1.73,1.73,0,1,1,1.73-1.73A1.73,1.73,0,0,1,618.92,699.81Zm0-11a1.73,1.73,0,1,1,1.73-1.73A1.73,1.73,0,0,1,618.92,688.79Zm0-11a1.73,1.73,0,1,1,1.73-1.73A1.73,1.73,0,0,1,618.92,677.76Zm0-11a1.73,1.73,0,1,1,1.73-1.73A1.73,1.73,0,0,1,618.92,666.74Zm0-11a1.73,1.73,0,1,1,1.73-1.73A1.73,1.73,0,0,1,618.92,655.72Zm0-11a1.73,1.73,0,1,1,1.73-1.73A1.73,1.73,0,0,1,618.92,644.69Zm0-11a1.73,1.73,0,1,1,1.73-1.73A1.73,1.73,0,0,1,618.92,633.67Zm0-11a1.73,1.73,0,1,1,1.73-1.73A1.73,1.73,0,0,1,618.92,622.64Zm0-11a1.73,1.73,0,1,1,1.73-1.73A1.73,1.73,0,0,1,618.92,611.62Zm0-11a1.73,1.73,0,1,1,1.73-1.73A1.73,1.73,0,0,1,618.92,600.6Zm0-11a1.73,1.73,0,1,1,1.73-1.73A1.73,1.73,0,0,1,618.92,589.57Zm0-11a1.73,1.73,0,1,1,1.73-1.73A1.73,1.73,0,0,1,618.92,578.55Zm0-11a1.73,1.73,0,1,1,1.73-1.73A1.73,1.73,0,0,1,618.92,567.52Zm0-11a1.73,1.73,0,1,1,1.73-1.73A1.73,1.73,0,0,1,618.92,556.5Zm0-11a1.73,1.73,0,1,1,1.73-1.73A1.73,1.73,0,0,1,618.92,545.48Zm0-11a1.73,1.73,0,1,1,1.73-1.73A1.73,1.73,0,0,1,618.92,534.45Zm0-11a1.73,1.73,0,1,1,1.73-1.73A1.73,1.73,0,0,1,618.92,523.43Zm5.61,182a1.73,1.73,0,1,1,1.73-1.73A1.73,1.73,0,0,1,624.53,705.42Zm0-11a1.73,1.73,0,1,1,1.73-1.73A1.73,1.73,0,0,1,624.53,694.4Zm0-11a1.73,1.73,0,1,1,1.73-1.73A1.73,1.73,0,0,1,624.53,683.37Zm0-11a1.73,1.73,0,1,1,1.73-1.73A1.73,1.73,0,0,1,624.53,672.35Zm0-11a1.73,1.73,0,1,1,1.73-1.73A1.73,1.73,0,0,1,624.53,661.33Zm0-11a1.73,1.73,0,1,1,1.73-1.73A1.73,1.73,0,0,1,624.53,650.3Zm0-11a1.73,1.73,0,1,1,1.73-1.73A1.73,1.73,0,0,1,624.53,639.28Zm0-11a1.73,1.73,0,1,1,1.73-1.73A1.73,1.73,0,0,1,624.53,628.26Zm0-11a1.73,1.73,0,1,1,1.73-1.73A1.73,1.73,0,0,1,624.53,617.23Zm0-11a1.73,1.73,0,1,1,1.73-1.73A1.73,1.73,0,0,1,624.53,606.21Zm0-11a1.73,1.73,0,1,1,1.73-1.73A1.73,1.73,0,0,1,624.53,595.18Zm0-11a1.73,1.73,0,1,1,1.73-1.73A1.73,1.73,0,0,1,624.53,584.16Zm0-11a1.73,1.73,0,1,1,1.73-1.73A1.73,1.73,0,0,1,624.53,573.14Zm0-11a1.73,1.73,0,1,1,1.73-1.73A1.73,1.73,0,0,1,624.53,562.11Zm0-11a1.73,1.73,0,1,1,1.73-1.73A1.73,1.73,0,0,1,624.53,551.09Zm0-11a1.73,1.73,0,1,1,1.73-1.73A1.73,1.73,0,0,1,624.53,540.06Zm0-11a1.73,1.73,0,1,1,1.73-1.73A1.73,1.73,0,0,1,624.53,529Zm0-11a1.73,1.73,0,1,1,1.73-1.73A1.73,1.73,0,0,1,624.53,518Zm5.08,170.77a1.73,1.73,0,1,1,1.73-1.73A1.73,1.73,0,0,1,629.61,688.79Zm0-11a1.73,1.73,0,1,1,1.73-1.73A1.73,1.73,0,0,1,629.61,677.76Zm0-11a1.73,1.73,0,1,1,1.73-1.73A1.73,1.73,0,0,1,629.61,666.74Zm0-11a1.73,1.73,0,1,1,1.73-1.73A1.73,1.73,0,0,1,629.61,655.72Zm0-11a1.73,1.73,0,1,1,1.73-1.73A1.73,1.73,0,0,1,629.61,644.69Zm0-11a1.73,1.73,0,1,1,1.73-1.73A1.73,1.73,0,0,1,629.61,633.67Zm0-11a1.73,1.73,0,1,1,1.73-1.73A1.73,1.73,0,0,1,629.61,622.64Zm0-11a1.73,1.73,0,1,1,1.73-1.73A1.73,1.73,0,0,1,629.61,611.62Zm0-11a1.73,1.73,0,1,1,1.73-1.73A1.73,1.73,0,0,1,629.61,600.6Zm0-11a1.73,1.73,0,1,1,1.73-1.73A1.73,1.73,0,0,1,629.61,589.57Zm0-11a1.73,1.73,0,1,1,1.73-1.73A1.73,1.73,0,0,1,629.61,578.55Zm0-11a1.73,1.73,0,1,1,1.73-1.73A1.73,1.73,0,0,1,629.61,567.52Zm0-11a1.73,1.73,0,1,1,1.73-1.73A1.73,1.73,0,0,1,629.61,556.5Zm0-11a1.73,1.73,0,1,1,1.73-1.73A1.73,1.73,0,0,1,629.61,545.48Zm0-11a1.73,1.73,0,1,1,1.73-1.73A1.73,1.73,0,0,1,629.61,534.45Zm0-11a1.73,1.73,0,1,1,1.73-1.73A1.73,1.73,0,0,1,629.61,523.43Zm5.61,159.95a1.73,1.73,0,1,1,1.73-1.73A1.73,1.73,0,0,1,635.23,683.37Zm0-11a1.73,1.73,0,1,1,1.73-1.73A1.73,1.73,0,0,1,635.23,672.35Zm0-11A1.73,1.73,0,1,1,637,659.6,1.73,1.73,0,0,1,635.23,661.33Zm0-11a1.73,1.73,0,1,1,1.73-1.73A1.73,1.73,0,0,1,635.23,650.3Zm0-11a1.73,1.73,0,1,1,1.73-1.73A1.73,1.73,0,0,1,635.23,639.28Zm0-11a1.73,1.73,0,1,1,1.73-1.73A1.73,1.73,0,0,1,635.23,628.26Zm0-11A1.73,1.73,0,1,1,637,615.5,1.73,1.73,0,0,1,635.23,617.23Zm0-11a1.73,1.73,0,1,1,1.73-1.73A1.73,1.73,0,0,1,635.23,606.21Zm0-11a1.73,1.73,0,1,1,1.73-1.73A1.73,1.73,0,0,1,635.23,595.18Zm0-11a1.73,1.73,0,1,1,1.73-1.73A1.73,1.73,0,0,1,635.23,584.16Zm0-11a1.73,1.73,0,1,1,1.73-1.73A1.73,1.73,0,0,1,635.23,573.14Zm0-11a1.73,1.73,0,1,1,1.73-1.73A1.73,1.73,0,0,1,635.23,562.11Zm0-11a1.73,1.73,0,1,1,1.73-1.73A1.73,1.73,0,0,1,635.23,551.09Zm0-11a1.73,1.73,0,1,1,1.73-1.73A1.73,1.73,0,0,1,635.23,540.06Zm0-11a1.73,1.73,0,1,1,1.73-1.73A1.73,1.73,0,0,1,635.23,529Zm0-11a1.73,1.73,0,1,1,1.73-1.73A1.73,1.73,0,0,1,635.23,518Zm5.08,159.75A1.73,1.73,0,1,1,642,676,1.73,1.73,0,0,1,640.31,677.76Zm0-11A1.73,1.73,0,1,1,642,665,1.73,1.73,0,0,1,640.31,666.74Zm0-11A1.73,1.73,0,1,1,642,654,1.73,1.73,0,0,1,640.31,655.72Zm0-11A1.73,1.73,0,1,1,642,643,1.73,1.73,0,0,1,640.31,644.69Zm0-11a1.73,1.73,0,1,1,1.73-1.73A1.73,1.73,0,0,1,640.31,633.67Zm0-11a1.73,1.73,0,1,1,1.73-1.73A1.73,1.73,0,0,1,640.31,622.64Zm0-11a1.73,1.73,0,1,1,1.73-1.73A1.73,1.73,0,0,1,640.31,611.62Zm0-11a1.73,1.73,0,1,1,1.73-1.73A1.73,1.73,0,0,1,640.31,600.6Zm0-11a1.73,1.73,0,1,1,1.73-1.73A1.73,1.73,0,0,1,640.31,589.57Zm0-11a1.73,1.73,0,1,1,1.73-1.73A1.73,1.73,0,0,1,640.31,578.55Zm0-11A1.73,1.73,0,1,1,642,565.8,1.73,1.73,0,0,1,640.31,567.52Zm0-11a1.73,1.73,0,1,1,1.73-1.73A1.73,1.73,0,0,1,640.31,556.5Zm0-11a1.73,1.73,0,1,1,1.73-1.73A1.73,1.73,0,0,1,640.31,545.48Zm0-11a1.73,1.73,0,1,1,1.73-1.73A1.73,1.73,0,0,1,640.31,534.45Zm0-11A1.73,1.73,0,1,1,642,521.7,1.73,1.73,0,0,1,640.31,523.43Zm5.61,137.9a1.73,1.73,0,1,1,1.73-1.73A1.73,1.73,0,0,1,645.92,661.33Zm0-11a1.73,1.73,0,1,1,1.73-1.73A1.73,1.73,0,0,1,645.92,650.3Zm0-11a1.73,1.73,0,1,1,1.73-1.73A1.73,1.73,0,0,1,645.92,639.28Zm0-11a1.73,1.73,0,1,1,1.73-1.73A1.73,1.73,0,0,1,645.92,628.26Zm0-11a1.73,1.73,0,1,1,1.73-1.73A1.73,1.73,0,0,1,645.92,617.23Zm0-11a1.73,1.73,0,1,1,1.73-1.73A1.73,1.73,0,0,1,645.92,606.21Zm0-11a1.73,1.73,0,1,1,1.73-1.73A1.73,1.73,0,0,1,645.92,595.18Zm0-11a1.73,1.73,0,1,1,1.73-1.73A1.73,1.73,0,0,1,645.92,584.16Zm0-11a1.73,1.73,0,1,1,1.73-1.73A1.73,1.73,0,0,1,645.92,573.14Zm0-11a1.73,1.73,0,1,1,1.73-1.73A1.73,1.73,0,0,1,645.92,562.11Zm0-11a1.73,1.73,0,1,1,1.73-1.73A1.73,1.73,0,0,1,645.92,551.09Zm0-11a1.73,1.73,0,1,1,1.73-1.73A1.73,1.73,0,0,1,645.92,540.06Zm0-11a1.73,1.73,0,1,1,1.73-1.73A1.73,1.73,0,0,1,645.92,529ZM651,666.74a1.73,1.73,0,1,1,1.73-1.73A1.73,1.73,0,0,1,651,666.74Zm0-11a1.73,1.73,0,1,1,1.73-1.73A1.73,1.73,0,0,1,651,655.72Zm0-11a1.73,1.73,0,1,1,1.73-1.73A1.73,1.73,0,0,1,651,644.69Zm0-11a1.73,1.73,0,1,1,1.73-1.73A1.73,1.73,0,0,1,651,633.67Zm0-11a1.73,1.73,0,1,1,1.73-1.73A1.73,1.73,0,0,1,651,622.64Zm0-11a1.73,1.73,0,1,1,1.73-1.73A1.73,1.73,0,0,1,651,611.62Zm0-11a1.73,1.73,0,1,1,1.73-1.73A1.73,1.73,0,0,1,651,600.6Zm0-11a1.73,1.73,0,1,1,1.73-1.73A1.73,1.73,0,0,1,651,589.57Zm0-11a1.73,1.73,0,1,1,1.73-1.73A1.73,1.73,0,0,1,651,578.55Zm0-11a1.73,1.73,0,1,1,1.73-1.73A1.73,1.73,0,0,1,651,567.52Zm0-11a1.73,1.73,0,1,1,1.73-1.73A1.73,1.73,0,0,1,651,556.5Zm0-11a1.73,1.73,0,1,1,1.73-1.73A1.73,1.73,0,0,1,651,545.48Zm5.61,104.83a1.73,1.73,0,1,1,1.73-1.73A1.73,1.73,0,0,1,656.61,650.3Zm0-11a1.73,1.73,0,1,1,1.73-1.73A1.73,1.73,0,0,1,656.61,639.28Zm0-11a1.73,1.73,0,1,1,1.73-1.73A1.73,1.73,0,0,1,656.61,628.26Zm0-11a1.73,1.73,0,1,1,1.73-1.73A1.73,1.73,0,0,1,656.61,617.23Zm0-11a1.73,1.73,0,1,1,1.73-1.73A1.73,1.73,0,0,1,656.61,606.21Zm0-11a1.73,1.73,0,1,1,1.73-1.73A1.73,1.73,0,0,1,656.61,595.18Zm0-11a1.73,1.73,0,1,1,1.73-1.73A1.73,1.73,0,0,1,656.61,584.16Zm0-11a1.73,1.73,0,1,1,1.73-1.73A1.73,1.73,0,0,1,656.61,573.14Zm0-11a1.73,1.73,0,1,1,1.73-1.73A1.73,1.73,0,0,1,656.61,562.11Zm0-11a1.73,1.73,0,1,1,1.73-1.73A1.73,1.73,0,0,1,656.61,551.09Zm5.08,82.58a1.73,1.73,0,1,1,1.73-1.73A1.73,1.73,0,0,1,661.69,633.67Zm0-11a1.73,1.73,0,1,1,1.73-1.73A1.73,1.73,0,0,1,661.69,622.64Zm0-11a1.73,1.73,0,1,1,1.73-1.73A1.73,1.73,0,0,1,661.69,611.62Zm0-11a1.73,1.73,0,1,1,1.73-1.73A1.73,1.73,0,0,1,661.69,600.6Zm0-11a1.73,1.73,0,1,1,1.73-1.73A1.73,1.73,0,0,1,661.69,589.57Zm0-11a1.73,1.73,0,1,1,1.73-1.73A1.73,1.73,0,0,1,661.69,578.55Zm0-11a1.73,1.73,0,1,1,1.73-1.73A1.73,1.73,0,0,1,661.69,567.52Zm0-11a1.73,1.73,0,1,1,1.73-1.73A1.73,1.73,0,0,1,661.69,556.5Zm0-11a1.73,1.73,0,1,1,1.73-1.73A1.73,1.73,0,0,1,661.69,545.48Zm5.61,82.78a1.73,1.73,0,1,1,1.73-1.73A1.73,1.73,0,0,1,667.3,628.26Zm0-11A1.73,1.73,0,1,1,669,615.5,1.73,1.73,0,0,1,667.3,617.23Zm0-11a1.73,1.73,0,1,1,1.73-1.73A1.73,1.73,0,0,1,667.3,606.21Zm0-11a1.73,1.73,0,1,1,1.73-1.73A1.73,1.73,0,0,1,667.3,595.18Zm0-11a1.73,1.73,0,1,1,1.73-1.73A1.73,1.73,0,0,1,667.3,584.16Zm0-11a1.73,1.73,0,1,1,1.73-1.73A1.73,1.73,0,0,1,667.3,573.14Zm0-11a1.73,1.73,0,1,1,1.73-1.73A1.73,1.73,0,0,1,667.3,562.11Zm0-11a1.73,1.73,0,1,1,1.73-1.73A1.73,1.73,0,0,1,667.3,551.09Zm5.08,71.56a1.73,1.73,0,1,1,1.73-1.73A1.73,1.73,0,0,1,672.38,622.64Zm0-11a1.73,1.73,0,1,1,1.73-1.73A1.73,1.73,0,0,1,672.38,611.62Zm0-11a1.73,1.73,0,1,1,1.73-1.73A1.73,1.73,0,0,1,672.38,600.6Zm0-11a1.73,1.73,0,1,1,1.73-1.73A1.73,1.73,0,0,1,672.38,589.57Zm0-11a1.73,1.73,0,1,1,1.73-1.73A1.73,1.73,0,0,1,672.38,578.55Zm0-11a1.73,1.73,0,1,1,1.73-1.73A1.73,1.73,0,0,1,672.38,567.52Zm0-11a1.73,1.73,0,1,1,1.73-1.73A1.73,1.73,0,0,1,672.38,556.5ZM678,628.26a1.73,1.73,0,1,1,1.73-1.73A1.73,1.73,0,0,1,678,628.26Zm0-11a1.73,1.73,0,1,1,1.73-1.73A1.73,1.73,0,0,1,678,617.23Zm0-11a1.73,1.73,0,1,1,1.73-1.73A1.73,1.73,0,0,1,678,606.21Zm0-11a1.73,1.73,0,1,1,1.73-1.73A1.73,1.73,0,0,1,678,595.18Zm0-11a1.73,1.73,0,1,1,1.73-1.73A1.73,1.73,0,0,1,678,584.16Zm0-11a1.73,1.73,0,1,1,1.73-1.73A1.73,1.73,0,0,1,678,573.14Zm0-11a1.73,1.73,0,1,1,1.73-1.73A1.73,1.73,0,0,1,678,562.11Zm5.08,60.53a1.73,1.73,0,1,1,1.73-1.73A1.73,1.73,0,0,1,683.08,622.64Zm0-11a1.73,1.73,0,1,1,1.73-1.73A1.73,1.73,0,0,1,683.08,611.62Zm0-11a1.73,1.73,0,1,1,1.73-1.73A1.73,1.73,0,0,1,683.08,600.6Zm0-11a1.73,1.73,0,1,1,1.73-1.73A1.73,1.73,0,0,1,683.08,589.57Zm0-11a1.73,1.73,0,1,1,1.73-1.73A1.73,1.73,0,0,1,683.08,578.55Zm0-11a1.73,1.73,0,1,1,1.73-1.73A1.73,1.73,0,0,1,683.08,567.52Zm0-11a1.73,1.73,0,1,1,1.73-1.73A1.73,1.73,0,0,1,683.08,556.5Zm5.61,60.73a1.73,1.73,0,1,1,1.73-1.73A1.73,1.73,0,0,1,688.69,617.23Zm0-11a1.73,1.73,0,1,1,1.73-1.73A1.73,1.73,0,0,1,688.69,606.21Zm0-11a1.73,1.73,0,1,1,1.73-1.73A1.73,1.73,0,0,1,688.69,595.18Zm0-11a1.73,1.73,0,1,1,1.73-1.73A1.73,1.73,0,0,1,688.69,584.16Zm0-11a1.73,1.73,0,1,1,1.73-1.73A1.73,1.73,0,0,1,688.69,573.14Zm0-11a1.73,1.73,0,1,1,1.73-1.73A1.73,1.73,0,0,1,688.69,562.11Zm5.08,49.51a1.73,1.73,0,1,1,1.73-1.73A1.73,1.73,0,0,1,693.77,611.62Zm0-11a1.73,1.73,0,1,1,1.73-1.73A1.73,1.73,0,0,1,693.77,600.6Zm0-11a1.73,1.73,0,1,1,1.73-1.73A1.73,1.73,0,0,1,693.77,589.57Zm0-11a1.73,1.73,0,1,1,1.73-1.73A1.73,1.73,0,0,1,693.77,578.55Zm0-11a1.73,1.73,0,1,1,1.73-1.73A1.73,1.73,0,0,1,693.77,567.52Zm0-11a1.73,1.73,0,1,1,1.73-1.73A1.73,1.73,0,0,1,693.77,556.5Zm5.61,27.66a1.73,1.73,0,1,1,1.73-1.73A1.73,1.73,0,0,1,699.38,584.16Zm0-11a1.73,1.73,0,1,1,1.73-1.73A1.73,1.73,0,0,1,699.38,573.14Zm0-11a1.73,1.73,0,1,1,1.73-1.73A1.73,1.73,0,0,1,699.38,562.11Zm10.69-3.45a1.73,1.73,0,1,1-1.73,1.73A1.73,1.73,0,0,1,710.07,558.66Zm0,11a1.73,1.73,0,1,1-1.73,1.73A1.73,1.73,0,0,1,710.07,569.68Zm-5.61-5.61a1.73,1.73,0,1,1-1.73,1.73A1.73,1.73,0,0,1,704.46,564.07Zm-1.73,12.75a1.73,1.73,0,1,1,1.73,1.73A1.73,1.73,0,0,1,702.74,576.82Z" transform="translate(-362.52 -405.94)"/><path class="cls-2" d="M373,409.74a1.73,1.73,0,0,0,0,3.45,1.7,1.7,0,0,0,.5-.08c-.12-.33-.23-.65-.36-1l1.32.24a1.72,1.72,0,0,0-1.47-2.63Z" transform="translate(-362.52 -405.94)"/><path class="cls-2" d="M382,411.46a1.73,1.73,0,1,0,3.32-.66,14.89,14.89,0,0,1-2.53-.79A1.72,1.72,0,0,0,382,411.46Z" transform="translate(-362.52 -405.94)"/><path class="cls-2" d="M394.38,413.19a1.71,1.71,0,0,0,1.62-2.32c-1.1.08-2.21.18-3.31.25a1.72,1.72,0,0,0,1.69,2.07Z" transform="translate(-362.52 -405.94)"/><circle class="cls-2" cx="42.55" cy="5.52" r="1.73"/><path class="cls-2" d="M367.91,415.35a1.71,1.71,0,0,0-.5.08q.89,1.41,1.78,2.79a1.72,1.72,0,0,0-1.28-2.87Z" transform="translate(-362.52 -405.94)"/><circle class="cls-2" cx="26.78" cy="11.13" r="1.73"/><circle class="cls-2" cx="37.47" cy="11.13" r="1.73"/><circle class="cls-2" cx="48.16" cy="11.13" r="1.73"/><path class="cls-2" d="M374.72,422.49a1.72,1.72,0,0,0-3.23-.83q.88,1.28,1.81,2.53A1.72,1.72,0,0,0,374.72,422.49Z" transform="translate(-362.52 -405.94)"/><path class="cls-2" d="M384.08,420.81q.61,1.06,1.27,2.11a1.7,1.7,0,0,0-1.27-2.11Z" transform="translate(-362.52 -405.94)"/><circle class="cls-2" cx="31.86" cy="16.54" r="1.73"/><circle class="cls-2" cx="42.55" cy="16.54" r="1.73"/><circle class="cls-2" cx="53.25" cy="16.54" r="1.73"/><circle class="cls-2" cx="63.94" cy="16.54" r="1.73"/><circle class="cls-2" cx="16.09" cy="22.15" r="1.73"/><path class="cls-2" d="M391,428.1a1.72,1.72,0,0,0-3.12-1,20,20,0,0,0,2,2.62A1.72,1.72,0,0,0,391,428.1Z" transform="translate(-362.52 -405.94)"/><circle class="cls-2" cx="37.47" cy="22.15" r="1.73"/><circle class="cls-2" cx="48.16" cy="22.15" r="1.73"/><circle class="cls-2" cx="58.86" cy="22.15" r="1.73"/><circle class="cls-2" cx="69.55" cy="22.15" r="1.73"/><circle class="cls-2" cx="21.17" cy="27.57" r="1.73"/><circle class="cls-2" cx="42.55" cy="27.57" r="1.73"/><circle class="cls-2" cx="53.25" cy="27.57" r="1.73"/><circle class="cls-2" cx="63.94" cy="27.57" r="1.73"/><circle class="cls-2" cx="74.63" cy="27.57" r="1.73"/><path class="cls-2" d="M447.84,435.24a1.73,1.73,0,0,0,1.73-1.73,1.71,1.71,0,0,0-.06-.44,1.77,1.77,0,0,0-1.23-.3,9.69,9.69,0,0,1-1.9-.18,1.72,1.72,0,0,0,1.46,2.64Z" transform="translate(-362.52 -405.94)"/><path class="cls-2" d="M387.57,439.12a1.72,1.72,0,0,0,3,1.13q-.73-1.44-1.53-2.83A1.72,1.72,0,0,0,387.57,439.12Z" transform="translate(-362.52 -405.94)"/><path class="cls-2" d="M400,437.4a1.72,1.72,0,0,0-1.63,1.17,1.05,1.05,0,0,0,.67.45,7.5,7.5,0,0,1,2.46.93,1.71,1.71,0,0,0,.22-.82A1.73,1.73,0,0,0,400,437.4Z" transform="translate(-362.52 -405.94)"/><circle class="cls-2" cx="48.16" cy="33.18" r="1.73"/><circle class="cls-2" cx="58.86" cy="33.18" r="1.73"/><circle class="cls-2" cx="69.55" cy="33.18" r="1.73"/><circle class="cls-2" cx="80.24" cy="33.18" r="1.73"/><path class="cls-2" d="M394.38,446.26a1.71,1.71,0,0,0,.59-.11,9.8,9.8,0,0,1-2.3-1.8,1.7,1.7,0,0,0,0,.18A1.73,1.73,0,0,0,394.38,446.26Z" transform="translate(-362.52 -405.94)"/><path class="cls-2" d="M405.07,442.81l-.26,0c.64.7,1.28,1.41,2,2.06a1.72,1.72,0,0,0-1.69-2.08Z" transform="translate(-362.52 -405.94)"/><circle class="cls-2" cx="53.25" cy="38.59" r="1.73"/><circle class="cls-2" cx="63.94" cy="38.59" r="1.73"/><circle class="cls-2" cx="74.63" cy="38.59" r="1.73"/><path class="cls-2" d="M446.12,444.54a1.72,1.72,0,0,0,3.07,1.07c-.08-.82-.19-1.64-.32-2.45a1.72,1.72,0,0,0-2.75,1.38Z" transform="translate(-362.52 -405.94)"/><circle class="cls-2" cx="58.86" cy="44.2" r="1.73"/><circle class="cls-2" cx="69.55" cy="44.2" r="1.73"/><circle class="cls-2" cx="80.24" cy="44.2" r="1.73"/><path class="cls-2" d="M417.49,455.56a1.72,1.72,0,0,0-3-1.19,23.89,23.89,0,0,1,.74,2.83,1.71,1.71,0,0,0,.51.08A1.73,1.73,0,0,0,417.49,455.56Z" transform="translate(-362.52 -405.94)"/><circle class="cls-2" cx="63.94" cy="49.61" r="1.73"/><circle class="cls-2" cx="74.63" cy="49.61" r="1.73"/><circle class="cls-2" cx="85.32" cy="49.61" r="1.73"/><circle class="cls-2" cx="128.09" cy="49.61" r="1.73"/><circle class="cls-2" cx="58.86" cy="55.23" r="1.73"/><circle class="cls-2" cx="69.55" cy="55.23" r="1.73"/><circle class="cls-2" cx="80.24" cy="55.23" r="1.73"/><circle class="cls-2" cx="90.93" cy="55.23" r="1.73"/><circle class="cls-2" cx="123.01" cy="55.23" r="1.73"/><circle class="cls-2" cx="63.94" cy="60.64" r="1.73"/><circle class="cls-2" cx="74.63" cy="60.64" r="1.73"/><circle class="cls-2" cx="85.32" cy="60.64" r="1.73"/><circle class="cls-2" cx="96.02" cy="60.64" r="1.73"/><path class="cls-2" d="M469.23,468.31a1.72,1.72,0,0,0,1.6-2.37,21.86,21.86,0,0,1-3.31.77A1.72,1.72,0,0,0,469.23,468.31Z" transform="translate(-362.52 -405.94)"/><circle class="cls-2" cx="117.4" cy="60.64" r="1.73"/><path class="cls-2" d="M433.79,472.19a1.72,1.72,0,0,0-3.44-.09q1.41.72,2.83,1.4A1.72,1.72,0,0,0,433.79,472.19Z" transform="translate(-362.52 -405.94)"/><circle class="cls-2" cx="80.24" cy="66.25" r="1.73"/><circle class="cls-2" cx="90.93" cy="66.25" r="1.73"/><circle class="cls-2" cx="101.63" cy="66.25" r="1.73"/><circle class="cls-2" cx="112.32" cy="66.25" r="1.73"/><path class="cls-2" d="M483.8,472.19a1.73,1.73,0,0,0,1.73,1.73,1.71,1.71,0,0,0,.85-.23,8.74,8.74,0,0,1-.73-3.21h-.12A1.73,1.73,0,0,0,483.8,472.19Z" transform="translate(-362.52 -405.94)"/><path class="cls-2" d="M449.57,477.61a1.73,1.73,0,1,0-3.15,1c.73.2,1.48.37,2.22.54A1.72,1.72,0,0,0,449.57,477.61Z" transform="translate(-362.52 -405.94)"/><circle class="cls-2" cx="96.02" cy="71.66" r="1.73"/><circle class="cls-2" cx="106.71" cy="71.66" r="1.73"/><circle class="cls-2" cx="117.4" cy="71.66" r="1.73"/><circle class="cls-2" cx="128.09" cy="71.66" r="1.73"/><path class="cls-2" d="M501.3,479.33a1.7,1.7,0,0,0,1.7-2l-3.29-.38a1.73,1.73,0,0,0,1.59,2.4Z" transform="translate(-362.52 -405.94)"/><path class="cls-2" d="M476.56,483.22a1.73,1.73,0,1,0-2.36,1.6l.58.12h.05A1.73,1.73,0,0,0,476.56,483.22Z" transform="translate(-362.52 -405.94)"/><path class="cls-2" d="M485.53,481.49a1.72,1.72,0,0,0-1.2,3,8.5,8.5,0,0,0,.87-.65l.92.18c.24.11.48.23.72.36a1.72,1.72,0,0,0-1.3-2.85Z" transform="translate(-362.52 -405.94)"/><circle class="cls-2" cx="133.7" cy="77.27" r="1.73"/><circle class="cls-2" cx="144.4" cy="77.27" r="1.73"/><circle class="cls-2" cx="138.79" cy="82.69" r="1.73"/><path class="cls-2" d="M556.37,489.26l-2.26.77-.21.08a1.71,1.71,0,0,0,2.47-.86Z" transform="translate(-362.52 -405.94)"/><path class="cls-2" d="M496.26,492.52c.57.7,1.13,1.41,1.63,2.16a1.71,1.71,0,0,0,.06-.44A1.72,1.72,0,0,0,496.26,492.52Z" transform="translate(-362.52 -405.94)"/><circle class="cls-2" cx="144.4" cy="88.3" r="1.73"/><path class="cls-2" d="M549.69,496a1.72,1.72,0,0,0,.28-3.42,8.73,8.73,0,0,0-1.77,2.57A1.72,1.72,0,0,0,549.69,496Z" transform="translate(-362.52 -405.94)"/><circle class="cls-2" cx="197.86" cy="88.3" r="1.73"/><path class="cls-2" d="M571.07,496a1.72,1.72,0,0,0,1-3.09,11.55,11.55,0,0,0-2.31.2,1.72,1.72,0,0,0,1.26,2.9Z" transform="translate(-362.52 -405.94)"/><circle class="cls-2" cx="149.48" cy="93.71" r="1.73"/><path class="cls-2" d="M545.77,500a9.77,9.77,0,0,0-2,1.36,1.73,1.73,0,0,0,2-1.36Z" transform="translate(-362.52 -405.94)"/><circle class="cls-2" cx="192.25" cy="93.71" r="1.73"/><circle class="cls-2" cx="202.94" cy="93.71" r="1.73"/><circle class="cls-2" cx="213.63" cy="93.71" r="1.73"/><circle class="cls-2" cx="224.33" cy="93.71" r="1.73"/><circle class="cls-2" cx="235.02" cy="93.71" r="1.73"/><path class="cls-2" d="M515.88,505.27a1.73,1.73,0,1,0,2.66-1.45,3.23,3.23,0,0,1-.85-.27h-.08A1.73,1.73,0,0,0,515.88,505.27Z" transform="translate(-362.52 -405.94)"/><path class="cls-2" d="M528.3,503.54a1.73,1.73,0,0,0-.66,3.32l.38-.38a3.3,3.3,0,0,1,1.94-.78,1.71,1.71,0,0,0,.06-.43A1.73,1.73,0,0,0,528.3,503.54Z" transform="translate(-362.52 -405.94)"/><circle class="cls-2" cx="187.17" cy="99.32" r="1.73"/><circle class="cls-2" cx="197.86" cy="99.32" r="1.73"/><circle class="cls-2" cx="208.55" cy="99.32" r="1.73"/><circle class="cls-2" cx="219.24" cy="99.32" r="1.73"/><circle class="cls-2" cx="229.94" cy="99.32" r="1.73"/><circle class="cls-2" cx="240.63" cy="99.32" r="1.73"/><path class="cls-2" d="M612.11,505.27a1.73,1.73,0,1,0,2.94-1.23c-.15-.12-.32-.22-.48-.33a1.72,1.72,0,0,0-2.46,1.56Z" transform="translate(-362.52 -405.94)"/><path class="cls-2" d="M522.69,509a1.73,1.73,0,1,0,.34,3.42,2.09,2.09,0,0,0,.89-.49,1.72,1.72,0,0,0-1.23-2.93Z" transform="translate(-362.52 -405.94)"/><circle class="cls-2" cx="181.56" cy="104.73" r="1.73"/><circle class="cls-2" cx="192.25" cy="104.73" r="1.73"/><circle class="cls-2" cx="202.94" cy="104.73" r="1.73"/><circle class="cls-2" cx="213.63" cy="104.73" r="1.73"/><circle class="cls-2" cx="224.33" cy="104.73" r="1.73"/><circle class="cls-2" cx="235.02" cy="104.73" r="1.73"/><circle class="cls-2" cx="245.71" cy="104.73" r="1.73"/><path class="cls-2" d="M617.2,510.68a1.72,1.72,0,0,0,3.44.16,2.79,2.79,0,0,1-.41-.9,5.14,5.14,0,0,0-.21-.58,1.72,1.72,0,0,0-2.82,1.32Z" transform="translate(-362.52 -405.94)"/><path class="cls-2" d="M540.72,516.29a1.73,1.73,0,0,0-1.73-1.73,1.71,1.71,0,0,0-.79.2,25.24,25.24,0,0,1,.58,2.53c0,.23.07.47.1.71H539A1.73,1.73,0,0,0,540.72,516.29Z" transform="translate(-362.52 -405.94)"/><circle class="cls-2" cx="187.17" cy="110.35" r="1.73"/><circle class="cls-2" cx="197.86" cy="110.35" r="1.73"/><circle class="cls-2" cx="208.55" cy="110.35" r="1.73"/><circle class="cls-2" cx="219.24" cy="110.35" r="1.73"/><circle class="cls-2" cx="229.94" cy="110.35" r="1.73"/><circle class="cls-2" cx="240.63" cy="110.35" r="1.73"/><circle class="cls-2" cx="251.32" cy="110.35" r="1.73"/><circle class="cls-2" cx="262.01" cy="110.35" r="1.73"/><circle class="cls-2" cx="272.71" cy="110.35" r="1.73"/><path class="cls-2" d="M644.19,516.29a1.72,1.72,0,0,0,3.37.49c-.94-.6-1.87-1.22-2.84-1.74A1.72,1.72,0,0,0,644.19,516.29Z" transform="translate(-362.52 -405.94)"/><circle class="cls-2" cx="181.56" cy="115.76" r="1.73"/><circle class="cls-2" cx="192.25" cy="115.76" r="1.73"/><circle class="cls-2" cx="202.94" cy="115.76" r="1.73"/><circle class="cls-2" cx="213.63" cy="115.76" r="1.73"/><circle class="cls-2" cx="224.33" cy="115.76" r="1.73"/><circle class="cls-2" cx="235.02" cy="115.76" r="1.73"/><circle class="cls-2" cx="245.71" cy="115.76" r="1.73"/><circle class="cls-2" cx="256.4" cy="115.76" r="1.73"/><circle class="cls-2" cx="267.1" cy="115.76" r="1.73"/><circle class="cls-2" cx="277.79" cy="115.76" r="1.73"/><circle class="cls-2" cx="187.17" cy="121.37" r="1.73"/><circle class="cls-2" cx="197.86" cy="121.37" r="1.73"/><circle class="cls-2" cx="208.55" cy="121.37" r="1.73"/><circle class="cls-2" cx="219.24" cy="121.37" r="1.73"/><circle class="cls-2" cx="229.94" cy="121.37" r="1.73"/><circle class="cls-2" cx="240.63" cy="121.37" r="1.73"/><circle class="cls-2" cx="251.32" cy="121.37" r="1.73"/><circle class="cls-2" cx="262.01" cy="121.37" r="1.73"/><circle class="cls-2" cx="272.71" cy="121.37" r="1.73"/><circle class="cls-2" cx="283.4" cy="121.37" r="1.73"/><circle class="cls-2" cx="181.56" cy="126.78" r="1.73"/><circle class="cls-2" cx="192.25" cy="126.78" r="1.73"/><circle class="cls-2" cx="202.94" cy="126.78" r="1.73"/><circle class="cls-2" cx="213.63" cy="126.78" r="1.73"/><circle class="cls-2" cx="224.33" cy="126.78" r="1.73"/><circle class="cls-2" cx="235.02" cy="126.78" r="1.73"/><circle class="cls-2" cx="245.71" cy="126.78" r="1.73"/><circle class="cls-2" cx="256.4" cy="126.78" r="1.73"/><circle class="cls-2" cx="267.1" cy="126.78" r="1.73"/><circle class="cls-2" cx="277.79" cy="126.78" r="1.73"/><path class="cls-2" d="M649.27,532.73a1.72,1.72,0,0,0,3,1.18,11.25,11.25,0,0,1-1.2-2.9H651A1.73,1.73,0,0,0,649.27,532.73Z" transform="translate(-362.52 -405.94)"/><circle class="cls-2" cx="176.47" cy="132.39" r="1.73"/><circle class="cls-2" cx="187.17" cy="132.39" r="1.73"/><circle class="cls-2" cx="197.86" cy="132.39" r="1.73"/><circle class="cls-2" cx="208.55" cy="132.39" r="1.73"/><circle class="cls-2" cx="219.24" cy="132.39" r="1.73"/><circle class="cls-2" cx="229.94" cy="132.39" r="1.73"/><circle class="cls-2" cx="240.63" cy="132.39" r="1.73"/><circle class="cls-2" cx="251.32" cy="132.39" r="1.73"/><circle class="cls-2" cx="262.01" cy="132.39" r="1.73"/><circle class="cls-2" cx="272.71" cy="132.39" r="1.73"/><circle class="cls-2" cx="283.4" cy="132.39" r="1.73"/><path class="cls-2" d="M656.61,540.06A1.73,1.73,0,0,0,658.2,539a19.29,19.29,0,0,1-2.91-1.77,1.72,1.72,0,0,0,1.31,2.84Z" transform="translate(-362.52 -405.94)"/><circle class="cls-2" cx="170.86" cy="137.81" r="1.73"/><circle class="cls-2" cx="181.56" cy="137.81" r="1.73"/><circle class="cls-2" cx="192.25" cy="137.81" r="1.73"/><circle class="cls-2" cx="202.94" cy="137.81" r="1.73"/><circle class="cls-2" cx="213.63" cy="137.81" r="1.73"/><circle class="cls-2" cx="224.33" cy="137.81" r="1.73"/><circle class="cls-2" cx="235.02" cy="137.81" r="1.73"/><circle class="cls-2" cx="245.71" cy="137.81" r="1.73"/><circle class="cls-2" cx="256.4" cy="137.81" r="1.73"/><circle class="cls-2" cx="267.1" cy="137.81" r="1.73"/><circle class="cls-2" cx="277.79" cy="137.81" r="1.73"/><circle class="cls-2" cx="288.48" cy="137.81" r="1.73"/><circle class="cls-2" cx="299.17" cy="137.81" r="1.73"/><circle class="cls-2" cx="165.78" cy="143.42" r="1.73"/><circle class="cls-2" cx="176.47" cy="143.42" r="1.73"/><circle class="cls-2" cx="187.17" cy="143.42" r="1.73"/><circle class="cls-2" cx="197.86" cy="143.42" r="1.73"/><circle class="cls-2" cx="208.55" cy="143.42" r="1.73"/><circle class="cls-2" cx="219.24" cy="143.42" r="1.73"/><circle class="cls-2" cx="229.94" cy="143.42" r="1.73"/><circle class="cls-2" cx="240.63" cy="143.42" r="1.73"/><circle class="cls-2" cx="251.32" cy="143.42" r="1.73"/><circle class="cls-2" cx="262.01" cy="143.42" r="1.73"/><circle class="cls-2" cx="272.71" cy="143.42" r="1.73"/><circle class="cls-2" cx="283.4" cy="143.42" r="1.73"/><circle class="cls-2" cx="294.09" cy="143.42" r="1.73"/><circle class="cls-2" cx="304.78" cy="143.42" r="1.73"/><path class="cls-2" d="M678,551.09a1.72,1.72,0,0,0,1.68-2.1,18.37,18.37,0,0,1-3.12-.57,1.72,1.72,0,0,0,1.44,2.67Z" transform="translate(-362.52 -405.94)"/><circle class="cls-2" cx="170.86" cy="148.83" r="1.73"/><circle class="cls-2" cx="181.56" cy="148.83" r="1.73"/><circle class="cls-2" cx="192.25" cy="148.83" r="1.73"/><circle class="cls-2" cx="202.94" cy="148.83" r="1.73"/><circle class="cls-2" cx="213.63" cy="148.83" r="1.73"/><circle class="cls-2" cx="224.33" cy="148.83" r="1.73"/><circle class="cls-2" cx="235.02" cy="148.83" r="1.73"/><circle class="cls-2" cx="245.71" cy="148.83" r="1.73"/><circle class="cls-2" cx="256.4" cy="148.83" r="1.73"/><circle class="cls-2" cx="267.1" cy="148.83" r="1.73"/><circle class="cls-2" cx="277.79" cy="148.83" r="1.73"/><circle class="cls-2" cx="288.48" cy="148.83" r="1.73"/><circle class="cls-2" cx="299.17" cy="148.83" r="1.73"/><circle class="cls-2" cx="309.87" cy="148.83" r="1.73"/><circle class="cls-2" cx="320.56" cy="148.83" r="1.73"/><circle class="cls-2" cx="331.25" cy="148.83" r="1.73"/><path class="cls-2" d="M704.46,556.5a1.71,1.71,0,0,0,.92-.27c-.86-.28-1.72-.58-2.55-.92A1.72,1.72,0,0,0,704.46,556.5Z" transform="translate(-362.52 -405.94)"/><circle class="cls-2" cx="165.78" cy="154.44" r="1.73"/><circle class="cls-2" cx="176.47" cy="154.44" r="1.73"/><circle class="cls-2" cx="187.17" cy="154.44" r="1.73"/><circle class="cls-2" cx="197.86" cy="154.44" r="1.73"/><circle class="cls-2" cx="208.55" cy="154.44" r="1.73"/><circle class="cls-2" cx="219.24" cy="154.44" r="1.73"/><circle class="cls-2" cx="229.94" cy="154.44" r="1.73"/><circle class="cls-2" cx="240.63" cy="154.44" r="1.73"/><circle class="cls-2" cx="251.32" cy="154.44" r="1.73"/><circle class="cls-2" cx="262.01" cy="154.44" r="1.73"/><circle class="cls-2" cx="272.71" cy="154.44" r="1.73"/><circle class="cls-2" cx="283.4" cy="154.44" r="1.73"/><circle class="cls-2" cx="294.09" cy="154.44" r="1.73"/><circle class="cls-2" cx="304.78" cy="154.44" r="1.73"/><circle class="cls-2" cx="315.48" cy="154.44" r="1.73"/><circle class="cls-2" cx="326.17" cy="154.44" r="1.73"/><circle class="cls-2" cx="336.86" cy="154.44" r="1.73"/><circle class="cls-2" cx="347.55" cy="154.44" r="1.73"/><circle class="cls-2" cx="170.86" cy="159.85" r="1.73"/><circle class="cls-2" cx="181.56" cy="159.85" r="1.73"/><circle class="cls-2" cx="192.25" cy="159.85" r="1.73"/><circle class="cls-2" cx="202.94" cy="159.85" r="1.73"/><circle class="cls-2" cx="213.63" cy="159.85" r="1.73"/><circle class="cls-2" cx="224.33" cy="159.85" r="1.73"/><circle class="cls-2" cx="235.02" cy="159.85" r="1.73"/><circle class="cls-2" cx="245.71" cy="159.85" r="1.73"/><circle class="cls-2" cx="256.4" cy="159.85" r="1.73"/><circle class="cls-2" cx="267.1" cy="159.85" r="1.73"/><circle class="cls-2" cx="277.79" cy="159.85" r="1.73"/><circle class="cls-2" cx="288.48" cy="159.85" r="1.73"/><circle class="cls-2" cx="299.17" cy="159.85" r="1.73"/><circle class="cls-2" cx="309.87" cy="159.85" r="1.73"/><circle class="cls-2" cx="320.56" cy="159.85" r="1.73"/><circle class="cls-2" cx="331.25" cy="159.85" r="1.73"/><circle class="cls-2" cx="341.94" cy="159.85" r="1.73"/><path class="cls-2" d="M713.54,566.39c0-.31,0-.63-.08-.94a1.74,1.74,0,0,0,0,.35A1.71,1.71,0,0,0,713.54,566.39Z" transform="translate(-362.52 -405.94)"/><circle class="cls-2" cx="176.47" cy="165.46" r="1.73"/><circle class="cls-2" cx="187.17" cy="165.46" r="1.73"/><circle class="cls-2" cx="197.86" cy="165.46" r="1.73"/><circle class="cls-2" cx="208.55" cy="165.46" r="1.73"/><circle class="cls-2" cx="219.24" cy="165.46" r="1.73"/><circle class="cls-2" cx="229.94" cy="165.46" r="1.73"/><circle class="cls-2" cx="240.63" cy="165.46" r="1.73"/><circle class="cls-2" cx="251.32" cy="165.46" r="1.73"/><circle class="cls-2" cx="262.01" cy="165.46" r="1.73"/><circle class="cls-2" cx="272.71" cy="165.46" r="1.73"/><circle class="cls-2" cx="283.4" cy="165.46" r="1.73"/><circle class="cls-2" cx="294.09" cy="165.46" r="1.73"/><circle class="cls-2" cx="304.78" cy="165.46" r="1.73"/><circle class="cls-2" cx="315.48" cy="165.46" r="1.73"/><circle class="cls-2" cx="326.17" cy="165.46" r="1.73"/><circle class="cls-2" cx="336.86" cy="165.46" r="1.73"/><circle class="cls-2" cx="347.55" cy="165.46" r="1.73"/><path class="cls-2" d="M533.39,575.1c.54.77,1.08,1.55,1.6,2.33a1.71,1.71,0,0,0-1.6-2.33Z" transform="translate(-362.52 -405.94)"/><circle class="cls-2" cx="181.56" cy="170.88" r="1.73"/><circle class="cls-2" cx="192.25" cy="170.88" r="1.73"/><circle class="cls-2" cx="202.94" cy="170.88" r="1.73"/><circle class="cls-2" cx="213.63" cy="170.88" r="1.73"/><circle class="cls-2" cx="224.33" cy="170.88" r="1.73"/><circle class="cls-2" cx="235.02" cy="170.88" r="1.73"/><circle class="cls-2" cx="245.71" cy="170.88" r="1.73"/><circle class="cls-2" cx="256.4" cy="170.88" r="1.73"/><circle class="cls-2" cx="267.1" cy="170.88" r="1.73"/><circle class="cls-2" cx="277.79" cy="170.88" r="1.73"/><circle class="cls-2" cx="288.48" cy="170.88" r="1.73"/><circle class="cls-2" cx="299.17" cy="170.88" r="1.73"/><circle class="cls-2" cx="309.87" cy="170.88" r="1.73"/><circle class="cls-2" cx="320.56" cy="170.88" r="1.73"/><circle class="cls-2" cx="331.25" cy="170.88" r="1.73"/><circle class="cls-2" cx="341.94" cy="170.88" r="1.73"/><path class="cls-2" d="M540.72,582.43a1.73,1.73,0,0,0-3.16-1c.54.88,1.08,1.77,1.6,2.67A1.72,1.72,0,0,0,540.72,582.43Z" transform="translate(-362.52 -405.94)"/><circle class="cls-2" cx="187.17" cy="176.49" r="1.73"/><circle class="cls-2" cx="197.86" cy="176.49" r="1.73"/><circle class="cls-2" cx="208.55" cy="176.49" r="1.73"/><circle class="cls-2" cx="219.24" cy="176.49" r="1.73"/><circle class="cls-2" cx="229.94" cy="176.49" r="1.73"/><circle class="cls-2" cx="240.63" cy="176.49" r="1.73"/><circle class="cls-2" cx="251.32" cy="176.49" r="1.73"/><circle class="cls-2" cx="262.01" cy="176.49" r="1.73"/><circle class="cls-2" cx="272.71" cy="176.49" r="1.73"/><circle class="cls-2" cx="283.4" cy="176.49" r="1.73"/><circle class="cls-2" cx="294.09" cy="176.49" r="1.73"/><circle class="cls-2" cx="304.78" cy="176.49" r="1.73"/><circle class="cls-2" cx="315.48" cy="176.49" r="1.73"/><circle class="cls-2" cx="326.17" cy="176.49" r="1.73"/><circle class="cls-2" cx="336.86" cy="176.49" r="1.73"/><circle class="cls-2" cx="181.56" cy="181.9" r="1.73"/><circle class="cls-2" cx="192.25" cy="181.9" r="1.73"/><circle class="cls-2" cx="202.94" cy="181.9" r="1.73"/><circle class="cls-2" cx="213.63" cy="181.9" r="1.73"/><circle class="cls-2" cx="224.33" cy="181.9" r="1.73"/><circle class="cls-2" cx="235.02" cy="181.9" r="1.73"/><circle class="cls-2" cx="245.71" cy="181.9" r="1.73"/><circle class="cls-2" cx="256.4" cy="181.9" r="1.73"/><circle class="cls-2" cx="267.1" cy="181.9" r="1.73"/><circle class="cls-2" cx="277.79" cy="181.9" r="1.73"/><circle class="cls-2" cx="288.48" cy="181.9" r="1.73"/><circle class="cls-2" cx="299.17" cy="181.9" r="1.73"/><circle class="cls-2" cx="309.87" cy="181.9" r="1.73"/><circle class="cls-2" cx="320.56" cy="181.9" r="1.73"/><circle class="cls-2" cx="331.25" cy="181.9" r="1.73"/><circle class="cls-2" cx="187.17" cy="187.51" r="1.73"/><circle class="cls-2" cx="197.86" cy="187.51" r="1.73"/><circle class="cls-2" cx="208.55" cy="187.51" r="1.73"/><circle class="cls-2" cx="219.24" cy="187.51" r="1.73"/><circle class="cls-2" cx="229.94" cy="187.51" r="1.73"/><circle class="cls-2" cx="240.63" cy="187.51" r="1.73"/><circle class="cls-2" cx="251.32" cy="187.51" r="1.73"/><circle class="cls-2" cx="262.01" cy="187.51" r="1.73"/><circle class="cls-2" cx="272.71" cy="187.51" r="1.73"/><circle class="cls-2" cx="283.4" cy="187.51" r="1.73"/><circle class="cls-2" cx="294.09" cy="187.51" r="1.73"/><circle class="cls-2" cx="304.78" cy="187.51" r="1.73"/><circle class="cls-2" cx="315.48" cy="187.51" r="1.73"/><circle class="cls-2" cx="326.17" cy="187.51" r="1.73"/><path class="cls-2" d="M697.68,593.71l0-.63a1.72,1.72,0,0,0,0,.38A1.71,1.71,0,0,0,697.68,593.71Z" transform="translate(-362.52 -405.94)"/><circle class="cls-2" cx="192.25" cy="192.93" r="1.73"/><circle class="cls-2" cx="202.94" cy="192.93" r="1.73"/><circle class="cls-2" cx="213.63" cy="192.93" r="1.73"/><circle class="cls-2" cx="224.33" cy="192.93" r="1.73"/><circle class="cls-2" cx="235.02" cy="192.93" r="1.73"/><circle class="cls-2" cx="245.71" cy="192.93" r="1.73"/><circle class="cls-2" cx="256.4" cy="192.93" r="1.73"/><circle class="cls-2" cx="267.1" cy="192.93" r="1.73"/><circle class="cls-2" cx="277.79" cy="192.93" r="1.73"/><circle class="cls-2" cx="288.48" cy="192.93" r="1.73"/><circle class="cls-2" cx="299.17" cy="192.93" r="1.73"/><circle class="cls-2" cx="309.87" cy="192.93" r="1.73"/><circle class="cls-2" cx="320.56" cy="192.93" r="1.73"/><circle class="cls-2" cx="331.25" cy="192.93" r="1.73"/><circle class="cls-2" cx="208.55" cy="198.54" r="1.73"/><circle class="cls-2" cx="219.24" cy="198.54" r="1.73"/><circle class="cls-2" cx="229.94" cy="198.54" r="1.73"/><circle class="cls-2" cx="240.63" cy="198.54" r="1.73"/><circle class="cls-2" cx="251.32" cy="198.54" r="1.73"/><circle class="cls-2" cx="262.01" cy="198.54" r="1.73"/><circle class="cls-2" cx="272.71" cy="198.54" r="1.73"/><circle class="cls-2" cx="283.4" cy="198.54" r="1.73"/><circle class="cls-2" cx="294.09" cy="198.54" r="1.73"/><circle class="cls-2" cx="304.78" cy="198.54" r="1.73"/><circle class="cls-2" cx="315.48" cy="198.54" r="1.73"/><circle class="cls-2" cx="326.17" cy="198.54" r="1.73"/><circle class="cls-2" cx="213.63" cy="203.95" r="1.73"/><circle class="cls-2" cx="224.33" cy="203.95" r="1.73"/><circle class="cls-2" cx="235.02" cy="203.95" r="1.73"/><circle class="cls-2" cx="245.71" cy="203.95" r="1.73"/><circle class="cls-2" cx="256.4" cy="203.95" r="1.73"/><circle class="cls-2" cx="267.1" cy="203.95" r="1.73"/><circle class="cls-2" cx="277.79" cy="203.95" r="1.73"/><circle class="cls-2" cx="288.48" cy="203.95" r="1.73"/><circle class="cls-2" cx="299.17" cy="203.95" r="1.73"/><circle class="cls-2" cx="309.87" cy="203.95" r="1.73"/><circle class="cls-2" cx="320.56" cy="203.95" r="1.73"/><circle class="cls-2" cx="331.25" cy="203.95" r="1.73"/><path class="cls-2" d="M572.8,615.5a1.73,1.73,0,0,0-1.73-1.73l-.17,0c0,.88.2,1.81.29,2.66,0,.25,0,.5.06.76A1.72,1.72,0,0,0,572.8,615.5Z" transform="translate(-362.52 -405.94)"/><circle class="cls-2" cx="219.24" cy="209.56" r="1.73"/><circle class="cls-2" cx="229.94" cy="209.56" r="1.73"/><circle class="cls-2" cx="240.63" cy="209.56" r="1.73"/><circle class="cls-2" cx="251.32" cy="209.56" r="1.73"/><circle class="cls-2" cx="262.01" cy="209.56" r="1.73"/><circle class="cls-2" cx="272.71" cy="209.56" r="1.73"/><circle class="cls-2" cx="283.4" cy="209.56" r="1.73"/><circle class="cls-2" cx="294.09" cy="209.56" r="1.73"/><circle class="cls-2" cx="304.78" cy="209.56" r="1.73"/><circle class="cls-2" cx="315.48" cy="209.56" r="1.73"/><circle class="cls-2" cx="326.17" cy="209.56" r="1.73"/><circle class="cls-2" cx="213.63" cy="214.97" r="1.73"/><circle class="cls-2" cx="224.33" cy="214.97" r="1.73"/><circle class="cls-2" cx="235.02" cy="214.97" r="1.73"/><circle class="cls-2" cx="245.71" cy="214.97" r="1.73"/><circle class="cls-2" cx="256.4" cy="214.97" r="1.73"/><circle class="cls-2" cx="267.1" cy="214.97" r="1.73"/><circle class="cls-2" cx="277.79" cy="214.97" r="1.73"/><circle class="cls-2" cx="288.48" cy="214.97" r="1.73"/><circle class="cls-2" cx="299.17" cy="214.97" r="1.73"/><circle class="cls-2" cx="309.87" cy="214.97" r="1.73"/><circle class="cls-2" cx="320.56" cy="214.97" r="1.73"/><circle class="cls-2" cx="219.24" cy="220.58" r="1.73"/><circle class="cls-2" cx="229.94" cy="220.58" r="1.73"/><circle class="cls-2" cx="240.63" cy="220.58" r="1.73"/><circle class="cls-2" cx="251.32" cy="220.58" r="1.73"/><circle class="cls-2" cx="262.01" cy="220.58" r="1.73"/><circle class="cls-2" cx="272.71" cy="220.58" r="1.73"/><circle class="cls-2" cx="283.4" cy="220.58" r="1.73"/><circle class="cls-2" cx="294.09" cy="220.58" r="1.73"/><circle class="cls-2" cx="304.78" cy="220.58" r="1.73"/><circle class="cls-2" cx="315.48" cy="220.58" r="1.73"/><path class="cls-2" d="M687,626.53a1.72,1.72,0,0,0,.67,1.36,5.1,5.1,0,0,0,2.22-2.62,1.72,1.72,0,0,0-2.89,1.27Z" transform="translate(-362.52 -405.94)"/><circle class="cls-2" cx="213.63" cy="226" r="1.73"/><circle class="cls-2" cx="224.33" cy="226" r="1.73"/><circle class="cls-2" cx="235.02" cy="226" r="1.73"/><circle class="cls-2" cx="245.71" cy="226" r="1.73"/><circle class="cls-2" cx="256.4" cy="226" r="1.73"/><circle class="cls-2" cx="267.1" cy="226" r="1.73"/><circle class="cls-2" cx="277.79" cy="226" r="1.73"/><circle class="cls-2" cx="288.48" cy="226" r="1.73"/><circle class="cls-2" cx="299.17" cy="226" r="1.73"/><path class="cls-2" d="M672.38,630.22a1.73,1.73,0,0,0-.65,3.32c.78-.52,1.56-1,2.37-1.5,0,0,0-.06,0-.1A1.73,1.73,0,0,0,672.38,630.22Z" transform="translate(-362.52 -405.94)"/><path class="cls-2" d="M572.8,637.55a1.73,1.73,0,0,0-1.73-1.73l-.19,0c-.12.85-.25,1.71-.41,2.56,0,.24-.08.48-.12.72a1.72,1.72,0,0,0,2.44-1.57Z" transform="translate(-362.52 -405.94)"/><circle class="cls-2" cx="219.24" cy="231.61" r="1.73"/><circle class="cls-2" cx="229.94" cy="231.61" r="1.73"/><circle class="cls-2" cx="240.63" cy="231.61" r="1.73"/><circle class="cls-2" cx="251.32" cy="231.61" r="1.73"/><circle class="cls-2" cx="262.01" cy="231.61" r="1.73"/><circle class="cls-2" cx="272.71" cy="231.61" r="1.73"/><circle class="cls-2" cx="283.4" cy="231.61" r="1.73"/><circle class="cls-2" cx="294.09" cy="231.61" r="1.73"/><circle class="cls-2" cx="213.63" cy="237.02" r="1.73"/><circle class="cls-2" cx="224.33" cy="237.02" r="1.73"/><circle class="cls-2" cx="235.02" cy="237.02" r="1.73"/><circle class="cls-2" cx="245.71" cy="237.02" r="1.73"/><circle class="cls-2" cx="256.4" cy="237.02" r="1.73"/><circle class="cls-2" cx="267.1" cy="237.02" r="1.73"/><circle class="cls-2" cx="277.79" cy="237.02" r="1.73"/><circle class="cls-2" cx="288.48" cy="237.02" r="1.73"/><circle class="cls-2" cx="208.55" cy="242.63" r="1.73"/><circle class="cls-2" cx="219.24" cy="242.63" r="1.73"/><circle class="cls-2" cx="229.94" cy="242.63" r="1.73"/><circle class="cls-2" cx="240.63" cy="242.63" r="1.73"/><circle class="cls-2" cx="251.32" cy="242.63" r="1.73"/><circle class="cls-2" cx="262.01" cy="242.63" r="1.73"/><circle class="cls-2" cx="272.71" cy="242.63" r="1.73"/><circle class="cls-2" cx="283.4" cy="242.63" r="1.73"/><circle class="cls-2" cx="294.09" cy="242.63" r="1.73"/><circle class="cls-2" cx="213.63" cy="248.04" r="1.73"/><circle class="cls-2" cx="224.33" cy="248.04" r="1.73"/><circle class="cls-2" cx="235.02" cy="248.04" r="1.73"/><circle class="cls-2" cx="245.71" cy="248.04" r="1.73"/><circle class="cls-2" cx="256.4" cy="248.04" r="1.73"/><circle class="cls-2" cx="267.1" cy="248.04" r="1.73"/><circle class="cls-2" cx="277.79" cy="248.04" r="1.73"/><circle class="cls-2" cx="288.48" cy="248.04" r="1.73"/><circle class="cls-2" cx="208.55" cy="253.66" r="1.73"/><circle class="cls-2" cx="219.24" cy="253.66" r="1.73"/><circle class="cls-2" cx="229.94" cy="253.66" r="1.73"/><circle class="cls-2" cx="240.63" cy="253.66" r="1.73"/><circle class="cls-2" cx="251.32" cy="253.66" r="1.73"/><circle class="cls-2" cx="262.01" cy="253.66" r="1.73"/><circle class="cls-2" cx="272.71" cy="253.66" r="1.73"/><circle class="cls-2" cx="283.4" cy="253.66" r="1.73"/><circle class="cls-2" cx="213.63" cy="259.07" r="1.73"/><circle class="cls-2" cx="224.33" cy="259.07" r="1.73"/><circle class="cls-2" cx="235.02" cy="259.07" r="1.73"/><circle class="cls-2" cx="245.71" cy="259.07" r="1.73"/><circle class="cls-2" cx="256.4" cy="259.07" r="1.73"/><circle class="cls-2" cx="267.1" cy="259.07" r="1.73"/><circle class="cls-2" cx="277.79" cy="259.07" r="1.73"/><circle class="cls-2" cx="288.48" cy="259.07" r="1.73"/><circle class="cls-2" cx="208.55" cy="264.68" r="1.73"/><circle class="cls-2" cx="219.24" cy="264.68" r="1.73"/><circle class="cls-2" cx="229.94" cy="264.68" r="1.73"/><circle class="cls-2" cx="240.63" cy="264.68" r="1.73"/><circle class="cls-2" cx="251.32" cy="264.68" r="1.73"/><circle class="cls-2" cx="262.01" cy="264.68" r="1.73"/><circle class="cls-2" cx="272.71" cy="264.68" r="1.73"/><path class="cls-2" d="M645.92,668.9a1.73,1.73,0,1,0,.55,3.36c.33-.27.66-.54,1-.82a1.71,1.71,0,0,0,.21-.81A1.73,1.73,0,0,0,645.92,668.9Z" transform="translate(-362.52 -405.94)"/><path class="cls-2" d="M567.19,676a1.72,1.72,0,0,0-.84-1.47c0,1-.09,2-.12,3A1.72,1.72,0,0,0,567.19,676Z" transform="translate(-362.52 -405.94)"/><circle class="cls-2" cx="213.63" cy="270.09" r="1.73"/><circle class="cls-2" cx="224.33" cy="270.09" r="1.73"/><circle class="cls-2" cx="235.02" cy="270.09" r="1.73"/><circle class="cls-2" cx="245.71" cy="270.09" r="1.73"/><circle class="cls-2" cx="256.4" cy="270.09" r="1.73"/><circle class="cls-2" cx="267.1" cy="270.09" r="1.73"/><circle class="cls-2" cx="277.79" cy="270.09" r="1.73"/><circle class="cls-2" cx="208.55" cy="275.7" r="1.73"/><circle class="cls-2" cx="219.24" cy="275.7" r="1.73"/><circle class="cls-2" cx="229.94" cy="275.7" r="1.73"/><circle class="cls-2" cx="240.63" cy="275.7" r="1.73"/><circle class="cls-2" cx="251.32" cy="275.7" r="1.73"/><circle class="cls-2" cx="262.01" cy="275.7" r="1.73"/><circle class="cls-2" cx="272.71" cy="275.7" r="1.73"/><path class="cls-2" d="M567.19,687.06a1.73,1.73,0,0,0-1-1.59c0,1.05,0,2.1,0,3.15A1.72,1.72,0,0,0,567.19,687.06Z" transform="translate(-362.52 -405.94)"/><circle class="cls-2" cx="213.63" cy="281.12" r="1.73"/><circle class="cls-2" cx="224.33" cy="281.12" r="1.73"/><circle class="cls-2" cx="235.02" cy="281.12" r="1.73"/><circle class="cls-2" cx="245.71" cy="281.12" r="1.73"/><circle class="cls-2" cx="256.4" cy="281.12" r="1.73"/><circle class="cls-2" cx="267.1" cy="281.12" r="1.73"/><circle class="cls-2" cx="208.55" cy="286.73" r="1.73"/><circle class="cls-2" cx="219.24" cy="286.73" r="1.73"/><circle class="cls-2" cx="229.94" cy="286.73" r="1.73"/><circle class="cls-2" cx="240.63" cy="286.73" r="1.73"/><circle class="cls-2" cx="251.32" cy="286.73" r="1.73"/><circle class="cls-2" cx="262.01" cy="286.73" r="1.73"/><path class="cls-2" d="M565.46,699.81a1.73,1.73,0,1,0-.93-3.18q-.36,1-.68,2.06A1.72,1.72,0,0,0,565.46,699.81Z" transform="translate(-362.52 -405.94)"/><circle class="cls-2" cx="213.63" cy="292.14" r="1.73"/><circle class="cls-2" cx="224.33" cy="292.14" r="1.73"/><circle class="cls-2" cx="235.02" cy="292.14" r="1.73"/><circle class="cls-2" cx="245.71" cy="292.14" r="1.73"/><circle class="cls-2" cx="256.4" cy="292.14" r="1.73"/><circle class="cls-2" cx="208.55" cy="297.75" r="1.73"/><circle class="cls-2" cx="219.24" cy="297.75" r="1.73"/><circle class="cls-2" cx="229.94" cy="297.75" r="1.73"/><circle class="cls-2" cx="240.63" cy="297.75" r="1.73"/><circle class="cls-2" cx="251.32" cy="297.75" r="1.73"/><circle class="cls-2" cx="262.01" cy="297.75" r="1.73"/><circle class="cls-2" cx="202.94" cy="303.16" r="1.73"/><circle class="cls-2" cx="213.63" cy="303.16" r="1.73"/><circle class="cls-2" cx="224.33" cy="303.16" r="1.73"/><circle class="cls-2" cx="235.02" cy="303.16" r="1.73"/><circle class="cls-2" cx="245.71" cy="303.16" r="1.73"/><circle class="cls-2" cx="256.4" cy="303.16" r="1.73"/><path class="cls-2" d="M562.1,714.72a1.73,1.73,0,0,0-1.37-1.69q-.25,1.7-.48,3.4h.13A1.73,1.73,0,0,0,562.1,714.72Z" transform="translate(-362.52 -405.94)"/><circle class="cls-2" cx="208.55" cy="308.78" r="1.73"/><circle class="cls-2" cx="219.24" cy="308.78" r="1.73"/><circle class="cls-2" cx="229.94" cy="308.78" r="1.73"/><circle class="cls-2" cx="240.63" cy="308.78" r="1.73"/><circle class="cls-2" cx="202.94" cy="314.19" r="1.73"/><circle class="cls-2" cx="213.63" cy="314.19" r="1.73"/><circle class="cls-2" cx="224.33" cy="314.19" r="1.73"/><circle class="cls-2" cx="235.02" cy="314.19" r="1.73"/><path class="cls-2" d="M560.38,727.47a1.73,1.73,0,1,0-1.13-3q-.14,1.14-.29,2.28A1.72,1.72,0,0,0,560.38,727.47Z" transform="translate(-362.52 -405.94)"/><circle class="cls-2" cx="208.55" cy="319.8" r="1.73"/><circle class="cls-2" cx="219.24" cy="319.8" r="1.73"/><circle class="cls-2" cx="229.94" cy="319.8" r="1.73"/><path class="cls-2" d="M601.42,725.74a1.71,1.71,0,0,0,.28.94,5.61,5.61,0,0,1,2.08-2.54,1.72,1.72,0,0,0-2.36,1.6Z" transform="translate(-362.52 -405.94)"/><path class="cls-2" d="M567.19,731.16a1.72,1.72,0,0,0-3.29-.72,3,3,0,0,1,.36,1.95,1.72,1.72,0,0,0,2.93-1.23Z" transform="translate(-362.52 -405.94)"/><circle class="cls-2" cx="213.63" cy="325.21" r="1.73"/><circle class="cls-2" cx="224.33" cy="325.21" r="1.73"/><circle class="cls-2" cx="235.02" cy="325.21" r="1.73"/><circle class="cls-2" cx="208.55" cy="330.82" r="1.73"/><circle class="cls-2" cx="219.24" cy="330.82" r="1.73"/><circle class="cls-2" cx="229.94" cy="330.82" r="1.73"/><path class="cls-2" d="M565.46,743.91a1.73,1.73,0,1,0-1.66-2.18c0,.28,0,.56,0,.84A1.72,1.72,0,0,0,565.46,743.91Z" transform="translate(-362.52 -405.94)"/><circle class="cls-2" cx="213.63" cy="336.24" r="1.73"/><circle class="cls-2" cx="224.33" cy="336.24" r="1.73"/><circle class="cls-2" cx="208.55" cy="341.85" r="1.73"/><circle class="cls-2" cx="219.24" cy="341.85" r="1.73"/><path class="cls-2" d="M565.46,754.93a1.73,1.73,0,1,0-1.57-2.43q0,.76.06,1.52A1.72,1.72,0,0,0,565.46,754.93Z" transform="translate(-362.52 -405.94)"/><circle class="cls-2" cx="213.63" cy="347.26" r="1.73"/><circle class="cls-2" cx="224.33" cy="347.26" r="1.73"/><circle class="cls-2" cx="208.55" cy="352.87" r="1.73"/><circle class="cls-2" cx="219.24" cy="352.87" r="1.73"/><path class="cls-2" d="M592.46,757.09a1.73,1.73,0,1,0,1.59,2.4l.13-.74A1.72,1.72,0,0,0,592.46,757.09Z" transform="translate(-362.52 -405.94)"/><path class="cls-2" d="M567.19,764.23a1.72,1.72,0,0,0-2.78-1.36c.06.95.12,1.9.19,2.84a1.72,1.72,0,0,0,2.59-1.48Z" transform="translate(-362.52 -405.94)"/><circle class="cls-2" cx="213.63" cy="358.28" r="1.73"/><circle class="cls-2" cx="224.33" cy="358.28" r="1.73"/><circle class="cls-2" cx="208.55" cy="363.9" r="1.73"/><circle class="cls-2" cx="219.24" cy="363.9" r="1.73"/><path class="cls-2" d="M567.19,775.25a1.71,1.71,0,0,0-2-1.7,24.31,24.31,0,0,0,.56,3.4A1.72,1.72,0,0,0,567.19,775.25Z" transform="translate(-362.52 -405.94)"/><circle class="cls-2" cx="213.63" cy="369.31" r="1.73"/><path class="cls-2" d="M585.12,775.25a1.71,1.71,0,0,0,.12.61c.36-.72.7-1.47,1-2.22A1.72,1.72,0,0,0,585.12,775.25Z" transform="translate(-362.52 -405.94)"/><circle class="cls-2" cx="208.55" cy="374.92" r="1.73"/><path class="cls-2" d="M580,780.86a1.72,1.72,0,0,0,1.33,1.68,9.89,9.89,0,0,1,1.47-2.75l.12-.17a1.72,1.72,0,0,0-2.91,1.25Z" transform="translate(-362.52 -405.94)"/><circle class="cls-2" cx="213.63" cy="380.33" r="1.73"/><path class="cls-2" d="M571.22,790.18l.24.49a11.89,11.89,0,0,0,1.18,1.94,1.71,1.71,0,0,0-1.42-2.43Z" transform="translate(-362.52 -405.94)"/><circle class="cls-2" cx="172.98" cy="102.28" r="1.73"/><path class="cls-2" d="M740.25,598.51a1.87,1.87,0,1,1,3.73,0v3a13.85,13.85,0,0,1,4.76-3.46,14.63,14.63,0,0,1,6-1.23,14.37,14.37,0,0,1,10.33,4.28,15.15,15.15,0,0,1,3.1,4.61,14.18,14.18,0,0,1,0,11.23,15.19,15.19,0,0,1-7.77,7.8,13.33,13.33,0,0,1-5.51,1.17,13,13,0,0,1-6.14-1.72,19.8,19.8,0,0,1-4.76-3.76v14.51a1.87,1.87,0,1,1-3.73,0ZM744,611.28a11,11,0,0,0,1,4.33A11.55,11.55,0,0,0,747.3,619a10.51,10.51,0,0,0,7.47,3.07,10.67,10.67,0,0,0,4.22-.84,10.73,10.73,0,0,0,5.78-5.78,10.69,10.69,0,0,0,.84-4.21,10.48,10.48,0,0,0-.84-4.19,10.81,10.81,0,0,0-5.78-5.75,10.69,10.69,0,0,0-4.22-.84,10.42,10.42,0,0,0-4.09.81,10.9,10.9,0,0,0-5.72,5.48,10,10,0,0,0-1,4.06Z" transform="translate(-362.52 -405.94)"/><path class="cls-2" d="M785.78,596.77a13.31,13.31,0,0,1,5.51,1.17,15.18,15.18,0,0,1,7.77,7.8,14.18,14.18,0,0,1,0,11.23,15.14,15.14,0,0,1-3.1,4.61,14.36,14.36,0,0,1-10.33,4.28,14.55,14.55,0,0,1-10.24-4.09,14,14,0,0,1-3.13-4.58,14.42,14.42,0,0,1-1.14-5.78,14.31,14.31,0,0,1,4.19-10.21,15,15,0,0,1,4.64-3.13A15.89,15.89,0,0,1,785.78,596.77Zm-.12,3.79a10.45,10.45,0,0,0-4.19.84,10.91,10.91,0,0,0-3.43,2.32,10.8,10.8,0,0,0-2.32,3.46,10.67,10.67,0,0,0-.84,4.22,10.45,10.45,0,0,0,.84,4.19,10.9,10.9,0,0,0,5.75,5.75,10.45,10.45,0,0,0,4.19.84,10.67,10.67,0,0,0,4.22-.84,10.82,10.82,0,0,0,5.78-5.75,10.48,10.48,0,0,0,.84-4.19,10.69,10.69,0,0,0-.84-4.22,10.73,10.73,0,0,0-5.78-5.78A10.68,10.68,0,0,0,785.66,600.56Z" transform="translate(-362.52 -405.94)"/><path class="cls-2" d="M816.79,596.77a13.31,13.31,0,0,1,5.51,1.17,15.18,15.18,0,0,1,7.77,7.8,14.18,14.18,0,0,1,0,11.23,15.14,15.14,0,0,1-3.1,4.61,14.36,14.36,0,0,1-10.33,4.28,14.55,14.55,0,0,1-10.24-4.09,14,14,0,0,1-3.13-4.58,14.42,14.42,0,0,1-1.14-5.78,14.31,14.31,0,0,1,4.19-10.21,15,15,0,0,1,4.64-3.13A15.89,15.89,0,0,1,816.79,596.77Zm-.12,3.79a10.45,10.45,0,0,0-4.19.84,10.91,10.91,0,0,0-3.43,2.32,10.8,10.8,0,0,0-2.32,3.46,10.67,10.67,0,0,0-.84,4.22,10.45,10.45,0,0,0,.84,4.19,10.9,10.9,0,0,0,5.75,5.75,10.45,10.45,0,0,0,4.19.84,10.67,10.67,0,0,0,4.22-.84,10.82,10.82,0,0,0,5.78-5.75,10.48,10.48,0,0,0,.84-4.19,10.69,10.69,0,0,0-.84-4.22,10.73,10.73,0,0,0-5.78-5.78A10.68,10.68,0,0,0,816.67,600.56Z" transform="translate(-362.52 -405.94)"/><path class="cls-2" d="M834.26,589.3a1.87,1.87,0,1,1,3.73,0V624a1.87,1.87,0,1,1-3.73,0Z" transform="translate(-362.52 -405.94)"/><path class="cls-3" d="M425.64,613.17V626.7H387.22a23.53,23.53,0,0,1-10.6-2.49,24,24,0,0,1-10.93-11,23.52,23.52,0,0,1-2.49-10.6V551h13.53v52.92a10.79,10.79,0,0,0,9.2,9.2Z" transform="translate(-362.52 -405.94)"/><path class="cls-3" d="M509.51,626.59H494.36l-6.93-13.53L470.88,580.6l-16.56,32.46-6.93,13.53H432.24l6.93-13.53,31.71-62.22,31.71,62.22Z" transform="translate(-362.52 -405.94)"/><path class="cls-3" d="M570.22,551v13.53H539.16V626.7H525.63V564.48H494.58V551Z" transform="translate(-362.52 -405.94)"/><path class="cls-3" d="M632.77,626.59H617.62l-6.93-13.53L594.14,580.6l-16.56,32.46-6.93,13.53H555.5l6.93-13.53,31.71-62.22,31.71,62.22Z" transform="translate(-362.52 -405.94)"/><path class="cls-3" d="M715,550.84v75.75H701.49V578.33L688.18,588.5l-11,8.55-11-8.55-13.31-10.17v48.26H639.27V550.84l13.53,10.39L677.14,580l24.35-18.72Z" transform="translate(-362.52 -405.94)"/></svg>