<svg id="Capa_1" data-name="Capa 1" xmlns="http://www.w3.org/2000/svg" viewBox="0 0 445.14 80.6"><defs><style>.cls-1{fill:#40c1d5;}.cls-2{fill:#00162b;}</style></defs><title>03_logo_fondoclaro</title><path class="cls-1" d="M730.82,605.1a1.75,1.75,0,1,1,3.5,0v2.82a13,13,0,0,1,4.46-3.25,13.72,13.72,0,0,1,5.65-1.16,13.46,13.46,0,0,1,9.68,4,14.21,14.21,0,0,1,2.91,4.32,13.3,13.3,0,0,1,0,10.53,14.24,14.24,0,0,1-7.28,7.31,12.5,12.5,0,0,1-5.17,1.1,12.22,12.22,0,0,1-5.76-1.61,18.52,18.52,0,0,1-4.46-3.53v13.61a1.75,1.75,0,1,1-3.5,0Zm3.5,12a10.32,10.32,0,0,0,.9,4.07,10.84,10.84,0,0,0,2.2,3.22,9.86,9.86,0,0,0,7,2.88,10,10,0,0,0,4-.79A10.06,10.06,0,0,0,753.8,621a10,10,0,0,0,.79-4,9.81,9.81,0,0,0-.79-3.92,10.25,10.25,0,0,0-2.17-3.22,10.15,10.15,0,0,0-3.25-2.17,10,10,0,0,0-4-.79,9.78,9.78,0,0,0-3.84.76,10.31,10.31,0,0,0-3.16,2.06,10.43,10.43,0,0,0-2.2,3.08,9.33,9.33,0,0,0-.9,3.81Z" transform="translate(-377.31 -560.41)"/><path class="cls-1" d="M773.51,603.47a12.48,12.48,0,0,1,5.17,1.1,14.23,14.23,0,0,1,7.28,7.31,13.29,13.29,0,0,1,0,10.53,14.19,14.19,0,0,1-2.91,4.32,13.46,13.46,0,0,1-9.68,4,13.63,13.63,0,0,1-9.6-3.84,13.18,13.18,0,0,1-2.94-4.29,13.53,13.53,0,0,1-1.07-5.42,13.41,13.41,0,0,1,3.92-9.57,14.06,14.06,0,0,1,4.35-2.94A14.9,14.9,0,0,1,773.51,603.47Zm-.11,3.56a9.82,9.82,0,0,0-3.92.79,10.13,10.13,0,0,0-5.39,5.42,10,10,0,0,0-.79,4,9.79,9.79,0,0,0,.79,3.92,10.21,10.21,0,0,0,5.39,5.39,9.8,9.8,0,0,0,3.92.79,10,10,0,0,0,4-.79,10.13,10.13,0,0,0,3.25-2.17,10.23,10.23,0,0,0,2.17-3.22,9.82,9.82,0,0,0,.79-3.92,10,10,0,0,0-.79-4,10.06,10.06,0,0,0-5.42-5.42A10,10,0,0,0,773.39,607Z" transform="translate(-377.31 -560.41)"/><path class="cls-1" d="M802.58,603.47a12.48,12.48,0,0,1,5.17,1.1,14.23,14.23,0,0,1,7.28,7.31,13.29,13.29,0,0,1,0,10.53,14.19,14.19,0,0,1-2.91,4.32,13.46,13.46,0,0,1-9.68,4,13.63,13.63,0,0,1-9.6-3.84,13.18,13.18,0,0,1-2.94-4.29,13.53,13.53,0,0,1-1.07-5.42,13.41,13.41,0,0,1,3.92-9.57,14.06,14.06,0,0,1,4.35-2.94A14.9,14.9,0,0,1,802.58,603.47Zm-.11,3.56a9.82,9.82,0,0,0-3.92.79,10.13,10.13,0,0,0-5.39,5.42,10,10,0,0,0-.79,4,9.79,9.79,0,0,0,.79,3.92,10.21,10.21,0,0,0,5.39,5.39,9.8,9.8,0,0,0,3.92.79,10,10,0,0,0,4-.79,10.13,10.13,0,0,0,3.25-2.17,10.23,10.23,0,0,0,2.17-3.22,9.82,9.82,0,0,0,.79-3.92,10,10,0,0,0-.79-4,10.06,10.06,0,0,0-5.42-5.42A10,10,0,0,0,802.47,607Z" transform="translate(-377.31 -560.41)"/><path class="cls-1" d="M819,596.47a1.75,1.75,0,1,1,3.5,0V629a1.75,1.75,0,1,1-3.5,0Z" transform="translate(-377.31 -560.41)"/><path class="cls-2" d="M435.85,618.85v12.68h-36a22.05,22.05,0,0,1-9.94-2.33,22.5,22.5,0,0,1-10.25-10.35,22.07,22.07,0,0,1-2.33-9.94V560.51H390v49.61a10.12,10.12,0,0,0,8.62,8.62Z" transform="translate(-377.31 -560.41)"/><path class="cls-2" d="M514.49,631.43h-14.2l-6.49-12.68-15.52-30.44-15.52,30.44-6.49,12.68H442l6.49-12.68,29.73-58.34L508,618.75Z" transform="translate(-377.31 -560.41)"/><path class="cls-2" d="M571.41,560.51V573.2H542.29v58.34H529.61V573.2H500.49V560.51Z" transform="translate(-377.31 -560.41)"/><path class="cls-2" d="M630.05,631.43h-14.2l-6.49-12.68-15.52-30.44-15.52,30.44-6.49,12.68h-14.2l6.49-12.68,29.73-58.34,29.73,58.34Z" transform="translate(-377.31 -560.41)"/><path class="cls-2" d="M707.16,560.41v71H694.48V586.18L682,595.72l-10.35,8-10.35-8-12.48-9.54v45.25H636.14v-71l12.68,9.74,22.83,17.55,22.83-17.55Z" transform="translate(-377.31 -560.41)"/></svg>